<svg width="1920" height="35" viewBox="0 0 1920 35" fill="none" xmlns="http://www.w3.org/2000/svg">
<rect width="1920" height="35" fill="#E83828"/>
<path d="M720.747 17.748V18.9785H715.839V23.2031H714.335V18.9785H709.481V17.748H720.747ZM719.708 11.5547V12.7578H716.003C716.092 14.1113 717.719 15.4102 720.159 15.7246L719.612 16.9141C717.507 16.6201 715.866 15.6562 715.114 14.3164C714.362 15.6562 712.722 16.6201 710.644 16.9141L710.069 15.7246C712.496 15.4102 714.123 14.1113 714.239 12.7578H710.521V11.5547H719.708ZM732.3 17.0371V18.2539H727.529V20.5234H726.025V18.2539H721.007V17.0371H732.3ZM730.851 11.418V15.8887H722.443V11.418H730.851ZM723.92 12.6074V14.6992H729.347V12.6074H723.92ZM731.056 21.7402V22.9707H722.375V19.3887H723.892V21.7402H731.056ZM741.612 12.0605V20.1543H735.76V12.0605H741.612ZM737.251 13.25V18.9375H740.094V13.25H737.251ZM745.003 10.8574V15.6016H746.903V16.8867H745.003V23.2168H743.485V10.8574H745.003ZM756.611 10.8574V13.6738H758.333V14.918H756.611V17.8027H755.093V10.8574H756.611ZM753.179 11.6094C753.165 14.8223 751.06 17.0508 747.368 18.0352L746.767 16.8184C749.631 16.0801 751.258 14.624 751.525 12.8398H747.355V11.6094H753.179ZM756.611 18.2949V23.0527H748.613V18.2949H756.611ZM750.13 19.5391V21.8496H755.107V19.5391H750.13ZM762.668 20.7695C762.08 20.7695 761.602 20.291 761.602 19.7031C761.602 19.1289 762.08 18.6504 762.668 18.6504C763.229 18.6504 763.721 19.1289 763.721 19.7031C763.721 20.291 763.229 20.7695 762.668 20.7695ZM762.668 15.4648C762.08 15.4648 761.602 14.9863 761.602 14.3984C761.602 13.8242 762.08 13.3457 762.668 13.3457C763.229 13.3457 763.721 13.8242 763.721 14.3984C763.721 14.9863 763.229 15.4648 762.668 15.4648ZM772.8 11.5547C775.453 11.5547 777.408 12.8809 777.408 14.8906C777.408 16.7432 775.815 17.9805 773.552 18.1992V20.4688H778.474V21.7129H767.181V20.4688H772.048V18.1992C769.799 17.9805 768.207 16.7432 768.22 14.8906C768.207 12.8809 770.162 11.5547 772.8 11.5547ZM772.8 12.7852C770.996 12.7715 769.697 13.5918 769.71 14.8906C769.697 16.2305 770.996 17.0234 772.8 17.0234C774.632 17.0234 775.918 16.2305 775.918 14.8906C775.918 13.5918 774.632 12.7715 772.8 12.7852ZM789.07 10.8711V19.8945H787.553V15.3691H785.365V14.1387H787.553V10.8711H789.07ZM789.385 21.7402V22.9707H780.963V19.1016H782.481V21.7402H789.385ZM783.26 13.332C783.26 14.8223 784.258 16.3535 786.172 16.9824L785.406 18.1992C784.025 17.7275 783.048 16.791 782.508 15.6152C781.961 16.9209 780.929 17.9531 779.473 18.459L778.693 17.2285C780.662 16.5859 781.715 14.959 781.715 13.3184V12.9902H779.145V11.7598H785.816V12.9902H783.26V13.332ZM793.802 22L798.095 13.6602V13.5918H793.118V12.1016H799.941V13.6191L795.648 22H793.802ZM805.082 13.8242C805.068 16.0938 806.258 18.3633 808.267 19.2246L807.365 20.4414C805.943 19.7852 804.897 18.4727 804.33 16.8594C803.762 18.6025 802.703 20.0244 801.199 20.7285L800.269 19.457C802.334 18.5684 803.537 16.2031 803.537 13.8242V11.8555H805.082V13.8242ZM810.687 10.8574V23.2305H809.156V10.8574H810.687ZM814.352 21.0293L813.203 24.8574H811.905L812.616 21.0293H814.352ZM827.998 10.8574V23.2305H826.466V10.8574H827.998ZM821.339 11.7598C823.199 11.7598 824.552 13.4551 824.566 16.1211C824.552 18.8145 823.199 20.4961 821.339 20.4961C819.466 20.4961 818.113 18.8145 818.113 16.1211C818.113 13.4551 819.466 11.7598 821.339 11.7598ZM821.339 13.127C820.287 13.127 819.576 14.2344 819.576 16.1211C819.576 18.0215 820.287 19.1289 821.339 19.1289C822.378 19.1289 823.089 18.0215 823.089 16.1211C823.089 14.2344 822.378 13.127 821.339 13.127ZM839.906 12.1836V13.4141H829.816V12.1836H834.123V10.8301H835.627V12.1836H839.906ZM840.549 18.8418V20.0859H835.627V23.2305H834.123V20.0859H829.256V18.8418H840.549ZM834.875 13.9746C837.486 13.9746 839.059 14.7129 839.059 16.0664C839.059 17.4199 837.486 18.1582 834.875 18.1582C832.264 18.1582 830.691 17.4199 830.691 16.0664C830.691 14.7129 832.264 13.9746 834.875 13.9746ZM834.875 15.1094C833.166 15.1094 832.264 15.4375 832.277 16.0664C832.264 16.6953 833.166 17.0234 834.875 17.0234C836.584 17.0234 837.486 16.6953 837.486 16.0664C837.486 15.4375 836.584 15.1094 834.875 15.1094ZM854.823 17.748V18.9785H849.915V23.2031H848.411V18.9785H843.558V17.748H854.823ZM853.784 11.5547V12.7578H850.079C850.168 14.1113 851.795 15.4102 854.235 15.7246L853.689 16.9141C851.583 16.6201 849.943 15.6562 849.191 14.3164C848.439 15.6562 846.798 16.6201 844.72 16.9141L844.146 15.7246C846.572 15.4102 848.199 14.1113 848.316 12.7578H844.597V11.5547H853.784ZM866.377 17.0371V18.2539H861.605V20.5234H860.101V18.2539H855.084V17.0371H866.377ZM864.927 11.418V15.8887H856.519V11.418H864.927ZM857.996 12.6074V14.6992H863.424V12.6074H857.996ZM865.133 21.7402V22.9707H856.451V19.3887H857.968V21.7402H865.133ZM877.903 17.2422V18.459H866.637V17.2422H877.903ZM876.631 21.7402V22.9707H868.031V19.375H869.549V21.7402H876.631ZM872.256 11.2539C874.949 11.2539 876.699 12.1973 876.713 13.7559C876.699 15.3281 874.949 16.2852 872.256 16.2852C869.563 16.2852 867.799 15.3281 867.799 13.7559C867.799 12.1973 869.563 11.2539 872.256 11.2539ZM872.256 12.4707C870.465 12.4707 869.371 12.9355 869.385 13.7559C869.371 14.5898 870.465 15.0547 872.256 15.041C874.061 15.0547 875.141 14.5898 875.141 13.7559C875.141 12.9355 874.061 12.4707 872.256 12.4707ZM891.234 18.7461V23.2168H889.702V19.9766H882.798V18.7461H891.234ZM891.234 10.8574V18.1445H889.702V10.8574H891.234ZM884.494 11.5684C886.394 11.5547 887.816 12.7988 887.816 14.5352C887.816 16.2988 886.394 17.5293 884.494 17.5293C882.579 17.5293 881.158 16.2988 881.158 14.5352C881.158 12.7988 882.579 11.5547 884.494 11.5684ZM884.494 12.8535C883.413 12.8672 882.634 13.5098 882.648 14.5352C882.634 15.5879 883.413 16.2441 884.494 16.2305C885.56 16.2441 886.326 15.5879 886.326 14.5352C886.326 13.5098 885.56 12.8672 884.494 12.8535ZM895.978 11.2539C897.851 11.2539 899.246 12.416 899.26 14.043C899.246 15.6836 897.851 16.832 895.978 16.832C894.092 16.832 892.697 15.6836 892.697 14.043C892.697 12.416 894.092 11.2539 895.978 11.2539ZM895.978 12.5117C894.939 12.5117 894.174 13.0996 894.174 14.043C894.174 15 894.939 15.6016 895.978 15.6016C897.018 15.6016 897.783 15 897.783 14.043C897.783 13.0996 897.018 12.5117 895.978 12.5117ZM902.773 10.8574V17.1055H901.242V10.8574H902.773ZM902.773 17.6387V20.8652H896.088V21.8633H903.143V23.0664H894.598V19.7441H901.256V18.8281H894.57V17.6387H902.773ZM913.192 11.6504C913.192 13.1133 914.901 14.6172 917.431 14.9727L916.856 16.1758C914.826 15.8613 913.206 14.877 912.427 13.5508C911.627 14.8975 910 15.8887 907.97 16.2031L907.396 15.0137C909.911 14.6309 911.62 13.1543 911.634 11.6504V11.1719H913.192V11.6504ZM918.06 16.9961V18.2266H913.288V20.4824H911.784V18.2266H906.767V16.9961H918.06ZM916.815 21.7402V22.9707H908.134V19.375H909.651V21.7402H916.815ZM922.668 14.7812C922.668 16.6133 923.707 18.6094 925.607 19.5117L924.759 20.6602C923.426 20.0381 922.456 18.8145 921.943 17.3652C921.396 18.9238 920.378 20.2432 918.963 20.8789L918.129 19.7031C920.07 18.8281 921.164 16.7227 921.164 14.7812V14.1387H918.525V12.9219H921.164V11.1172H922.681V12.9219H925.279V14.1387H922.668V14.7812ZM928 10.8574V15.752H929.9V17.0234H928V23.2168H926.482V10.8574H928ZM943.86 16.2031V17.3242H938.993V18.2266H942.479V21.125H935.452V21.9727H942.821V23.1074H933.962V20.0859H940.989V19.3203H933.948V18.2266H937.489V17.3242H932.649V16.2031H943.86ZM938.993 10.8301V11.8691H942.78V13.0039H939.157C939.451 13.8789 940.886 14.5352 943.354 14.6582L942.903 15.793C940.688 15.6562 939.02 15.0547 938.241 14.0566C937.462 15.0547 935.801 15.6562 933.565 15.793L933.141 14.6582C935.582 14.5352 937.017 13.8789 937.339 13.0039H933.729V11.8691H937.489V10.8301H938.993ZM954.251 11.9922V13.1816C954.238 14.7129 954.238 16.4355 953.759 19.0195L952.228 18.8555C952.706 16.4492 952.706 14.6924 952.72 13.209H945.337V11.9922H954.251ZM955.427 20.373V21.6172H944.161V20.373H948.318V16.0801H949.822V20.373H955.427ZM962.92 11.6367L959.735 23.4902H958.204L961.403 11.6367H962.92ZM975.964 10.8574V23.2305H974.433V10.8574H975.964ZM969.306 11.7598C971.166 11.7598 972.519 13.4551 972.533 16.1211C972.519 18.8145 971.166 20.4961 969.306 20.4961C967.433 20.4961 966.08 18.8145 966.08 16.1211C966.08 13.4551 967.433 11.7598 969.306 11.7598ZM969.306 13.127C968.253 13.127 967.542 14.2344 967.542 16.1211C967.542 18.0215 968.253 19.1289 969.306 19.1289C970.345 19.1289 971.056 18.0215 971.056 16.1211C971.056 14.2344 970.345 13.127 969.306 13.127ZM983.129 11.5957V15.3145H979.232V16.832C981.215 16.8389 982.357 16.7773 983.662 16.5312L983.813 17.7617C982.336 18.0078 981.051 18.0488 978.631 18.0488H977.729V14.1797H981.611V12.7988H977.701V11.5957H983.129ZM987.572 10.8711V18.4727H986.055V16.4355H983.867V15.2188H986.055V13.8379H983.867V12.6211H986.055V10.8711H987.572ZM987.572 19.0605V23.2168H986.055V20.2773H979.123V19.0605H987.572ZM999.112 10.8711V19.9902H997.594V15.4375H995.106V17.9805H989.323V11.6777H990.84V13.6738H993.602V11.6777H995.106V14.207H997.594V10.8711H999.112ZM999.385 21.7402V22.9707H990.964V19.0879H992.508V21.7402H999.385ZM990.84 16.7773H993.602V14.8496H990.84V16.7773ZM1011.02 12.5117V13.7422H1000.81V12.5117H1005.17V11.0215H1006.67V12.5117H1011.02ZM1011.59 20.6602V21.8906H1000.3V20.6602H1005.17V19.1426C1003.03 18.9717 1001.74 18.1172 1001.75 16.75C1001.74 15.2598 1003.34 14.3711 1005.92 14.3711C1008.46 14.3711 1010.08 15.2598 1010.08 16.75C1010.08 18.1104 1008.78 18.9648 1006.67 19.1289V20.6602H1011.59ZM1005.92 15.5605C1004.24 15.5742 1003.3 15.9707 1003.31 16.75C1003.3 17.543 1004.24 17.9395 1005.92 17.9531C1007.58 17.9395 1008.52 17.543 1008.52 16.75C1008.52 15.9707 1007.58 15.5742 1005.92 15.5605ZM1021.85 14.3574V15.5605H1013.29V11.3086H1014.79V14.3574H1021.85ZM1023.12 16.9961V18.1992H1011.83V16.9961H1023.12ZM1021.93 21.6992V22.9297H1013.18V19.293H1014.7V21.6992H1021.93ZM1027.96 11.9922V14.8496H1029.97V11.9922H1031.38V20.2227H1026.53V11.9922H1027.96ZM1027.96 18.9922H1029.97V16.0527H1027.96V18.9922ZM1036.81 10.8574V23.2168H1035.34V16.8867H1034.03V22.6152H1032.6V11.0762H1034.03V15.6289H1035.34V10.8574H1036.81ZM1044.05 15.2188V16.832H1048.95V18.0488H1037.68V16.832H1042.55V15.2188H1044.05ZM1044.07 11.5273C1044.07 13.0312 1045.72 14.3984 1048.31 14.7266L1047.72 15.916C1045.69 15.6016 1044.07 14.6855 1043.29 13.3867C1042.5 14.6855 1040.88 15.6016 1038.85 15.916L1038.3 14.7266C1040.84 14.3984 1042.52 13.0039 1042.52 11.5273V11.0625H1044.07V11.5273ZM1043.3 18.8555C1045.98 18.8555 1047.57 19.6348 1047.58 21.0293C1047.57 22.4238 1045.98 23.2031 1043.3 23.2031C1040.61 23.2031 1039 22.4238 1039 21.0293C1039 19.6348 1040.61 18.8555 1043.3 18.8555ZM1043.3 20.0176C1041.48 20.0176 1040.53 20.3457 1040.54 21.0293C1040.53 21.7129 1041.48 22.0547 1043.3 22.0547C1045.08 22.0547 1046.05 21.7129 1046.06 21.0293C1046.05 20.3457 1045.08 20.0176 1043.3 20.0176ZM1056.41 14.7402V15.957H1054.12V17.3516C1055.15 17.3105 1056.17 17.2422 1057.14 17.1465L1057.25 18.2402C1054.62 18.6094 1051.78 18.6777 1049.48 18.6777L1049.28 17.4609C1050.3 17.4541 1051.42 17.4473 1052.59 17.4062V15.957H1050.34V11.623H1056.32V12.8535H1051.88V14.7402H1056.41ZM1059.53 10.8574V20.1406H1058V10.8574H1059.53ZM1059.89 21.7402V22.9707H1051.25V19.457H1052.78V21.7402H1059.89ZM1067.9 12.8262C1067.9 14.3848 1068.91 15.8477 1070.81 16.4492L1069.99 17.6387C1068.66 17.1875 1067.7 16.2852 1067.17 15.1367C1066.63 16.4492 1065.63 17.4814 1064.21 17.9805L1063.39 16.791C1065.38 16.0938 1066.37 14.4531 1066.38 12.6895V11.5137H1067.9V12.8262ZM1073.27 10.8574V13.8652H1075V15.123H1073.27V18.2539H1071.76V10.8574H1073.27ZM1069.25 18.5273C1071.81 18.5137 1073.38 19.3887 1073.4 20.8516C1073.38 22.3418 1071.81 23.2031 1069.25 23.2031C1066.67 23.2031 1065.07 22.3418 1065.07 20.8516C1065.07 19.3887 1066.67 18.5137 1069.25 18.5273ZM1069.25 19.7168C1067.56 19.7168 1066.59 20.127 1066.59 20.8516C1066.59 21.6172 1067.56 22 1069.25 22C1070.95 22 1071.89 21.6172 1071.89 20.8516C1071.89 20.127 1070.95 19.7168 1069.25 19.7168ZM1086.33 16.709V17.9258H1081.44V19.1152H1084.96V23.0664H1076.39V19.1152H1079.93V17.9258H1075.06V16.709H1086.33ZM1085.29 11.2266V12.4434H1083.6V14.5625H1085.22V15.793H1076.14V14.5625H1077.77V12.4434H1076.08V11.2266H1085.29ZM1077.89 20.291V21.8359H1083.49V20.291H1077.89ZM1079.29 14.5625H1082.06V12.4434H1079.29V14.5625ZM1097.27 10.8574V23.2168H1095.8V10.8574H1097.27ZM1094.72 11.0762V22.6152H1093.28V16.7363H1092.1C1091.96 19.1426 1090.92 20.6328 1089.39 20.6191C1087.78 20.6328 1086.73 18.9238 1086.73 16.2031C1086.73 13.4824 1087.78 11.8008 1089.39 11.8008C1090.89 11.8008 1091.91 13.1953 1092.09 15.5059H1093.28V11.0762H1094.72ZM1089.39 13.2363C1088.61 13.2227 1088.12 14.2754 1088.14 16.2031C1088.12 18.1309 1088.61 19.1836 1089.39 19.1699C1090.21 19.1836 1090.71 18.1309 1090.71 16.2031C1090.71 14.2754 1090.21 13.2227 1089.39 13.2363ZM1102.71 13.8242C1102.71 16.1211 1103.8 18.377 1105.77 19.2383L1104.86 20.4551C1103.45 19.7715 1102.47 18.459 1101.94 16.8457C1101.4 18.5479 1100.4 19.9629 1098.98 20.6875L1098.02 19.457C1100.03 18.5137 1101.15 16.1348 1101.16 13.8242V11.8555H1102.71V13.8242ZM1108.51 10.8574V23.2305H1107V16.0801H1104.41V14.8496H1107V10.8574H1108.51ZM1122.23 10.8711V14.4668H1123.9V15.7246H1122.23V19.2246H1120.72V10.8711H1122.23ZM1112.34 17.748C1113.27 17.748 1114.34 17.7412 1115.45 17.707V16.9551C1114.08 16.7842 1113.21 16.1211 1113.21 15.1504C1113.21 14.0156 1114.4 13.3047 1116.19 13.3184C1118 13.3047 1119.17 14.0156 1119.17 15.1504C1119.17 16.1143 1118.32 16.7705 1116.97 16.9414V17.6523C1118.02 17.6045 1119.08 17.5225 1120.07 17.3926L1120.2 18.4453C1117.56 18.9102 1114.67 18.9375 1112.5 18.9375L1112.34 17.748ZM1122.23 19.7578V23.2168H1120.72V20.9473H1113.89V19.7578H1122.23ZM1119.75 11.8418V12.9629H1112.65V11.8418H1115.45V10.7617H1116.97V11.8418H1119.75ZM1116.19 14.3438C1115.23 14.3301 1114.66 14.6172 1114.67 15.1504C1114.66 15.6562 1115.23 15.9844 1116.19 15.9707C1117.15 15.9844 1117.72 15.6562 1117.72 15.1504C1117.72 14.6172 1117.15 14.3301 1116.19 14.3438ZM1134.28 10.8711V19.7988H1132.75V10.8711H1134.28ZM1134.62 21.7402V22.9707H1126.1V18.8965H1127.64V21.7402H1134.62ZM1127.54 11.6777C1129.41 11.6777 1130.86 12.9766 1130.86 14.7676C1130.86 16.5996 1129.41 17.8711 1127.54 17.8711C1125.65 17.8711 1124.2 16.5996 1124.2 14.7676C1124.2 12.9766 1125.65 11.6777 1127.54 11.6777ZM1127.54 13.0039C1126.49 13.0039 1125.68 13.7012 1125.69 14.7676C1125.68 15.8613 1126.49 16.5449 1127.54 16.5449C1128.56 16.5449 1129.37 15.8613 1129.37 14.7676C1129.37 13.7012 1128.56 13.0039 1127.54 13.0039ZM1145.81 10.8574V23.2305H1144.27V10.8574H1145.81ZM1139.15 11.7598C1141.01 11.7598 1142.36 13.4551 1142.37 16.1211C1142.36 18.8145 1141.01 20.4961 1139.15 20.4961C1137.27 20.4961 1135.92 18.8145 1135.92 16.1211C1135.92 13.4551 1137.27 11.7598 1139.15 11.7598ZM1139.15 13.127C1138.09 13.127 1137.38 14.2344 1137.38 16.1211C1137.38 18.0215 1138.09 19.1289 1139.15 19.1289C1140.19 19.1289 1140.9 18.0215 1140.9 16.1211C1140.9 14.2344 1140.19 13.127 1139.15 13.127ZM1159.51 10.8574V15.6836H1161.34V16.9551H1159.51V23.1895H1157.99V10.8574H1159.51ZM1156.24 12.1426C1156.24 15.7793 1154.73 18.9648 1150.62 20.9883L1149.76 19.8125C1152.77 18.3154 1154.39 16.21 1154.71 13.4004H1150.43V12.1426H1156.24ZM1171.36 14.0703V15.3008H1162.83V11.0762H1164.35V14.0703H1171.36ZM1172.65 16.4902V17.7207H1161.37V16.4902H1172.65ZM1166.99 18.6094C1169.65 18.623 1171.25 19.4434 1171.26 20.8926C1171.25 22.3418 1169.65 23.1621 1166.99 23.1621C1164.29 23.1621 1162.68 22.3418 1162.68 20.8926C1162.68 19.4434 1164.29 18.623 1166.99 18.6094ZM1166.99 19.7988C1165.18 19.8125 1164.21 20.1543 1164.22 20.8926C1164.21 21.6035 1165.18 22 1166.99 22C1168.75 22 1169.73 21.6035 1169.75 20.8926C1169.73 20.1543 1168.75 19.8125 1166.99 19.7988ZM1182.65 10.8574V13.9062H1184.38V15.1641H1182.65V18.0762H1181.14V10.8574H1182.65ZM1176.17 18.5684V19.6348H1181.14V18.5684H1182.65V23.0664H1174.67V18.5684H1176.17ZM1176.17 21.8633H1181.14V20.8105H1176.17V21.8633ZM1180.25 12.0059V13.2227H1172.92V12.0059H1175.83V10.7617H1177.35V12.0059H1180.25ZM1176.58 13.6465C1178.37 13.6465 1179.59 14.5078 1179.6 15.8203C1179.59 17.1328 1178.37 17.9941 1176.58 17.9941C1174.78 17.9941 1173.55 17.1328 1173.55 15.8203C1173.55 14.5078 1174.78 13.6465 1176.58 13.6465ZM1176.58 14.7676C1175.64 14.7676 1175.02 15.1641 1175.02 15.8203C1175.02 16.4902 1175.64 16.873 1176.58 16.873C1177.53 16.873 1178.16 16.4902 1178.16 15.8203C1178.16 15.1641 1177.53 14.7676 1176.58 14.7676ZM1194.75 10.8574V23.2168H1193.25V10.8574H1194.75ZM1186.66 12.0605V18.8145C1188.4 18.7871 1190.24 18.6299 1192.14 18.2539L1192.33 19.5254C1190.16 19.9766 1188.14 20.1133 1186.22 20.1133H1185.16V12.0605H1186.66ZM1205.66 10.8574V15.5469H1207.56V16.791H1205.66V23.2305H1204.15V10.8574H1205.66ZM1202.27 12.0332V13.2637H1198.01V18.9375C1199.93 18.9375 1201.45 18.8418 1203.15 18.541L1203.33 19.8262C1201.41 20.1543 1199.74 20.209 1197.52 20.209H1196.49V12.0332H1202.27ZM1209.03 22.1094C1208.44 22.1094 1207.96 21.6309 1207.96 21.043C1207.96 20.4688 1208.44 19.9902 1209.03 19.9902C1209.59 19.9902 1210.08 20.4688 1210.08 21.043C1210.08 21.6309 1209.59 22.1094 1209.03 22.1094Z" fill="white"/>
</svg>
