<svg width="20" height="20" viewBox="0 0 20 20" fill="none" xmlns="http://www.w3.org/2000/svg">
<g clip-path="url(#clip0_423_2751)">
<path d="M18.3421 11.6309C17.0631 14.3354 12.3116 14.0064 10.3016 13.8969C8.29162 13.7874 2.51713 12.4714 1.56662 10.3519C1.40262 9.98644 1.30713 9.62494 1.26863 9.27344H1.26562L1.47312 12.1229C1.55862 13.1829 2.12813 14.1589 3.03963 14.7064C5.15763 15.9794 8.79112 16.7424 10.3011 16.8244C12.1401 16.9249 16.2731 17.2084 17.9431 15.1854C18.2031 14.8704 18.3481 14.4759 18.3816 14.0689C18.4546 13.1789 18.6061 11.3254 18.6646 10.6124C18.6001 10.9614 18.4971 11.3029 18.3421 11.6309Z" fill="#FF8293"/>
<path d="M10.1538 12.4486C11.5448 12.5246 15.8463 12.8071 16.7203 10.9301C17.6578 8.91714 16.8383 6.35564 15.6463 5.23914C14.3543 4.02914 12.2788 4.50714 10.5843 5.64514C9.2528 6.53914 7.1878 6.74664 6.3638 6.79414C6.0008 6.81514 4.7048 7.04214 4.3473 7.10664C2.7303 7.39814 2.3563 8.56264 2.9153 9.81014C3.5728 11.2771 8.7633 12.3721 10.1543 12.4476L10.1538 12.4486ZM13.3048 6.38364C14.2058 6.38364 14.9358 6.95064 14.9358 7.65014C14.9358 8.34964 14.2058 8.91714 13.3048 8.91714C12.4038 8.91714 11.6738 8.35014 11.6738 7.65014C11.6738 6.95014 12.4038 6.38364 13.3048 6.38364Z" fill="#ED4E61"/>
<path d="M10.3014 13.8944C12.3114 14.0039 17.0624 14.3329 18.3419 11.6284C18.4969 11.3004 18.6009 10.9584 18.6649 10.6099C19.1314 8.0829 17.4379 5.1744 16.7634 4.2429C15.9959 3.1829 13.3709 2.4189 10.9224 4.0634C8.99835 5.3554 6.01385 5.6549 4.82335 5.7239C4.29885 5.7544 3.77435 5.8454 3.29335 6.0559C1.89235 6.6679 1.11685 7.8879 1.26885 9.2709C1.30735 9.6224 1.40285 9.9839 1.56685 10.3494C2.51685 12.4694 8.29135 13.7849 10.3019 13.8944H10.3014ZM4.35235 7.1084C4.70985 7.0439 6.00585 6.8169 6.36885 6.7959C7.19285 6.7484 9.25785 6.5409 10.5894 5.6469C12.2839 4.5089 14.3594 4.0304 15.6514 5.2409C16.8434 6.3574 17.6629 8.9189 16.7254 10.9319C15.8514 12.8084 11.5499 12.5259 10.1589 12.4504C8.76785 12.3744 3.57735 11.2794 2.91985 9.8129C2.36035 8.5654 2.73485 7.4009 4.35185 7.1094L4.35235 7.1084Z" fill="#FFA7B3"/>
<path d="M13.3107 8.91631C14.2117 8.91631 14.9417 8.34931 14.9417 7.64931C14.9417 6.94931 14.2117 6.38281 13.3107 6.38281C12.4097 6.38281 11.6797 6.94981 11.6797 7.64931C11.6797 8.34881 12.4097 8.91631 13.3107 8.91631Z" fill="#FFA7B3"/>
</g>
<defs>
<clipPath id="clip0_423_2751">
<rect width="20" height="20" fill="white"/>
</clipPath>
</defs>
</svg>
