<svg width="20" height="20" viewBox="0 0 20 20" fill="none" xmlns="http://www.w3.org/2000/svg">
<g clip-path="url(#clip0_423_2801)">
<path d="M10.001 18.7102C14.8335 18.7102 18.751 14.8043 18.751 9.98621C18.751 5.16808 14.8335 1.26221 10.001 1.26221C5.16849 1.26221 1.25098 5.16808 1.25098 9.98621C1.25098 14.8043 5.16849 18.7102 10.001 18.7102Z" fill="#FFC84D"/>
<path d="M9.24223 12.1191C9.96873 12.1826 10.5082 12.3676 10.8492 12.5236C10.9957 12.5906 11.1402 12.4281 11.0577 12.2901C10.7907 11.8461 10.2602 11.2386 9.32673 11.1576C8.39323 11.0766 7.76473 11.5821 7.42473 11.9736C7.31923 12.0951 7.43323 12.2801 7.58923 12.2396C7.95273 12.1451 8.51623 12.0556 9.24223 12.1191Z" fill="#FF6D00"/>
<path d="M6.96589 5.41915C7.56289 5.47115 7.89539 5.63765 8.17739 5.79215C8.33989 5.88115 8.48139 5.76165 8.41239 5.57665C8.26289 5.17665 7.81539 4.72165 7.03339 4.65315C6.25139 4.58515 5.73089 4.95565 5.51439 5.32365C5.41389 5.49415 5.53239 5.63615 5.70789 5.57665C6.01239 5.47365 6.36939 5.36715 6.96589 5.41915Z" fill="black"/>
<path d="M12.0904 3.88008C11.4934 3.93208 11.1609 4.09858 10.8789 4.25308C10.7164 4.34208 10.5749 4.22258 10.6439 4.03758C10.7934 3.63758 11.2409 3.18258 12.0229 3.11408C12.8049 3.04608 13.3254 3.41658 13.5419 3.78458C13.6424 3.95508 13.5239 4.09708 13.3484 4.03758C13.0439 3.93458 12.6869 3.82808 12.0904 3.88008Z" fill="black"/>
<path d="M7.17016 8.71468C7.78569 8.71468 8.28466 8.21726 8.28466 7.60368C8.28466 6.99009 7.78569 6.49268 7.17016 6.49268C6.55464 6.49268 6.05566 6.99009 6.05566 7.60368C6.05566 8.21726 6.55464 8.71468 7.17016 8.71468Z" fill="black"/>
<path d="M11.8152 8.71249C12.4203 8.71249 12.9107 8.13337 12.9107 7.41899C12.9107 6.70461 12.4203 6.12549 11.8152 6.12549C11.2102 6.12549 10.7197 6.70461 10.7197 7.41899C10.7197 8.13337 11.2102 8.71249 11.8152 8.71249Z" fill="black"/>
<path d="M3.98535 16.2068C3.98535 15.3283 4.06535 14.2743 4.10535 13.6893C4.13585 13.2443 4.16685 12.4248 4.22335 12.0528C4.28135 11.6693 4.50285 11.3448 4.92685 11.4883C5.33185 11.6258 5.53535 12.2173 5.53535 12.7268C5.53535 13.2363 5.57335 13.5763 5.87785 13.7313C6.18235 13.8863 6.55935 13.8653 7.16635 13.8653C7.77335 13.8653 9.88435 13.8228 10.9569 13.8228C11.2044 13.8228 11.5869 13.8583 11.7624 14.0323C11.9809 14.2493 11.9369 14.6703 11.6114 14.8143C11.0889 15.0453 9.85885 14.9923 9.53285 15.1343C9.20685 15.2763 9.23235 15.5088 9.21285 15.8633C9.18935 16.2983 9.29185 17.4333 9.18935 17.9073C9.07335 18.4448 8.75535 18.7408 8.27785 18.7408H6.22335C4.99585 18.7408 3.98585 17.5293 3.98585 16.2068H3.98535Z" fill="#FF9210"/>
</g>
<defs>
<clipPath id="clip0_423_2801">
<rect width="20" height="20" fill="white" transform="translate(0.000976562 0.000488281)"/>
</clipPath>
</defs>
</svg>
