<svg width="20" height="20" viewBox="0 0 20 20" fill="none" xmlns="http://www.w3.org/2000/svg">
<g clip-path="url(#clip0_423_2722)">
<path d="M10 18.75C14.8325 18.75 18.75 14.8325 18.75 10C18.75 5.16751 14.8325 1.25 10 1.25C5.16751 1.25 1.25 5.16751 1.25 10C1.25 14.8325 5.16751 18.75 10 18.75Z" fill="#FFC84D"/>
<path d="M6.10083 8.09897C5.97733 8.15997 5.83533 8.05297 5.86283 7.91797C6.01533 7.16847 6.66033 6.60547 7.43283 6.60547C8.20533 6.60547 8.85033 7.16847 9.00283 7.91797C9.03033 8.05297 8.88833 8.15997 8.76483 8.09897C8.49533 7.96597 8.03633 7.79847 7.43283 7.79847C6.82933 7.79847 6.37033 7.96597 6.10083 8.09897Z" fill="black"/>
<path d="M13.9055 8.09897C14.029 8.15997 14.171 8.05297 14.1435 7.91797C13.991 7.16847 13.346 6.60547 12.5735 6.60547C11.801 6.60547 11.156 7.16847 11.0035 7.91797C10.976 8.05297 11.118 8.15997 11.2415 8.09897C11.511 7.96597 11.97 7.79847 12.5735 7.79847C13.177 7.79847 13.636 7.96597 13.9055 8.09897Z" fill="black"/>
<path d="M9.91303 12.2623C8.13553 12.2623 6.85753 11.4848 6.16053 10.9163C5.95453 10.7483 5.65703 10.9833 5.77803 11.2203C6.40103 12.4398 8.20103 13.3328 9.91303 13.3328C11.625 13.3328 13.4255 12.4403 14.048 11.2203C14.169 10.9838 13.8715 10.7483 13.6655 10.9163C12.9685 11.4848 11.6905 12.2623 9.91303 12.2623Z" fill="#FF6D00"/>
<path d="M15.021 12.6674L14.1165 11.0819L13.905 10.7109C13.905 10.7109 13.9 10.7119 13.8975 10.7139C13.3145 11.2439 12.0615 12.1359 10.25 12.2404L11.034 13.6149L11.615 14.6334C12.142 15.5459 13.331 15.8454 14.2715 15.3024C15.212 14.7594 15.547 13.5794 15.0205 12.6674H15.021Z" fill="#F5172B"/>
</g>
<defs>
<clipPath id="clip0_423_2722">
<rect width="20" height="20" fill="white"/>
</clipPath>
</defs>
</svg>
