<svg width="20" height="20" viewBox="0 0 20 20" fill="none" xmlns="http://www.w3.org/2000/svg">
<g clip-path="url(#clip0_423_2766)">
<path d="M17.7344 10.2584C17.7344 10.5734 17.6794 10.8784 17.5744 11.1734L17.4094 11.5434C17.4044 11.5534 17.3994 11.5584 17.3944 11.5684C17.3594 11.6334 17.3194 11.6984 17.2794 11.7634C17.2544 11.8034 17.2294 11.8484 17.1994 11.8934C17.1344 11.9834 17.0694 12.0734 16.9944 12.1634C16.9844 12.1784 16.9744 12.1884 16.9644 12.1984C16.8794 12.2984 16.7944 12.3984 16.6994 12.4934C16.6194 12.5684 16.5294 12.6434 16.4444 12.7184C16.4944 12.5234 16.5294 12.3284 16.5294 12.1284C16.5294 10.9084 15.5294 9.82844 13.9844 9.13344L14.4544 7.46844C14.4794 7.37844 14.4544 7.28844 14.4044 7.20844L14.8594 6.77344C15.6694 7.15844 16.3444 7.62844 16.8394 8.16844C17.4094 8.79344 17.7344 9.50344 17.7344 10.2584Z" fill="#3D3D3D"/>
<path d="M12.6656 6.06125L9.11562 6.79625C7.83062 7.01625 6.76062 7.87125 6.25062 9.03625C4.57062 9.72125 3.47062 10.8512 3.47062 12.1312C3.47062 12.3312 3.50563 12.5262 3.55562 12.7212C3.47062 12.6462 3.38063 12.5712 3.30562 12.4962C3.10062 12.2912 2.93062 12.0712 2.78062 11.8462L2.80062 11.8912C2.65562 11.6762 2.54062 11.4612 2.45062 11.2312C2.45062 11.2262 2.44562 11.2212 2.44062 11.2112C2.38562 11.0662 2.34562 10.9162 2.31562 10.7612C2.31562 10.7579 2.31396 10.7546 2.31062 10.7512C2.28062 10.5912 2.26562 10.4262 2.26562 10.2612C2.26562 9.50625 2.59062 8.79625 3.16062 8.17125C4.46062 6.75125 7.03062 5.78125 10.0006 5.78125C10.9406 5.78125 11.8356 5.88625 12.6656 6.06125Z" fill="#3D3D3D"/>
<path d="M16.5317 12.1302C16.5317 10.9107 15.5312 9.82866 13.9837 9.13666L13.5632 10.6142C13.5602 10.8142 13.4878 10.9937 13.3608 11.1542C13.4798 11.1247 13.6023 11.1052 13.7297 11.1052C14.3792 11.1052 14.9353 11.5062 15.1632 12.0747C15.2732 12.3492 15.0767 12.6497 14.7808 12.6497H12.6777C12.3822 12.6497 12.1853 12.3492 12.2952 12.0747C12.3462 11.9482 12.4152 11.8317 12.4963 11.7242C10.3933 12.5562 5.91025 12.1117 5.93575 10.4952C5.94375 9.97616 6.05625 9.48316 6.25125 9.03516C4.57025 9.71966 3.46875 10.8497 3.46875 12.1302C3.46875 12.3312 3.50375 12.5267 3.55575 12.7187C3.63775 12.7917 3.71225 12.8677 3.80175 12.9372C3.80625 12.9407 3.81025 12.9447 3.81475 12.9482C4.00175 13.0927 4.20625 13.2287 4.42125 13.3587C4.48675 13.3982 4.55825 13.4347 4.62625 13.4727C4.77675 13.5572 4.93125 13.6392 5.09325 13.7167C5.18825 13.7622 5.28575 13.8052 5.38425 13.8477C6.67325 14.4062 8.26575 14.7422 9.99975 14.7422C11.7442 14.7422 13.3468 14.4027 14.6392 13.8377C14.7172 13.8037 14.7957 13.7702 14.8717 13.7342C15.1007 13.6262 15.3232 13.5132 15.5292 13.3907C15.5357 13.3867 15.5417 13.3822 15.5483 13.3787C15.7552 13.2547 15.9472 13.1227 16.1287 12.9862C16.1698 12.9552 16.2087 12.9237 16.2482 12.8922C16.3182 12.8362 16.3783 12.7762 16.4443 12.7182C16.4963 12.5257 16.5312 12.3302 16.5312 12.1297L16.5317 12.1302ZM6.46325 12.5362H5.04575C4.83275 12.5362 4.67175 12.3217 4.75275 12.1247C4.91475 11.7307 5.30225 11.4532 5.75475 11.4532C6.20725 11.4532 6.59475 11.7307 6.75675 12.1247C6.83775 12.3217 6.67625 12.5362 6.46325 12.5362ZM8.87925 13.9397C8.66625 13.9397 8.50525 13.7252 8.58625 13.5282C8.74825 13.1342 9.13575 12.8567 9.58825 12.8567C10.0407 12.8567 10.4283 13.1342 10.5903 13.5282C10.6713 13.7252 10.5103 13.9397 10.2973 13.9397H8.87925Z" fill="#FFC450"/>
<path d="M10.5878 13.527C10.4258 13.133 10.0383 12.8555 9.58583 12.8555C9.13333 12.8555 8.74583 13.133 8.58383 13.527C8.50283 13.724 8.66383 13.9385 8.87683 13.9385H10.2943C10.5073 13.9385 10.6683 13.724 10.5873 13.527H10.5878Z" fill="#FFE3A0"/>
<path d="M5.7577 11.4531C5.3052 11.4531 4.9177 11.7306 4.7557 12.1246C4.6747 12.3216 4.8357 12.5361 5.0487 12.5361H6.4662C6.6792 12.5361 6.8402 12.3216 6.7592 12.1246C6.5972 11.7306 6.2097 11.4531 5.7572 11.4531H5.7577Z" fill="#036D50"/>
<path d="M16.8719 5.79349C16.8619 6.23349 16.4969 6.58349 16.0569 6.57349L15.5519 6.56349L15.0869 6.55349L14.8569 6.77349L14.4019 7.20849C14.3919 7.19349 14.3869 7.17349 14.3719 7.15849L13.3369 6.07849C13.3269 6.06849 13.3119 6.06349 13.2969 6.05349L13.9819 5.39849L13.9919 4.92849L14.0019 4.43349C14.0119 3.98849 14.3769 3.64349 14.8169 3.64849C15.2619 3.65849 15.6069 4.02349 15.6019 4.46849L15.5869 4.96349L16.0919 4.97849C16.5319 4.98849 16.8819 5.35349 16.8719 5.79349Z" fill="#D5D5D5"/>
<path d="M14.4576 7.46773L13.9876 9.13273L13.5676 10.6127C13.5626 10.8127 13.4926 10.9927 13.3626 11.1527C13.0126 11.2377 12.7076 11.4427 12.4976 11.7227C10.3976 12.5527 5.9126 12.1077 5.9376 10.4927C5.9476 9.97273 6.0576 9.48273 6.2526 9.03273C6.7626 7.86773 7.8326 7.01273 9.1176 6.79273L12.6676 6.05773L13.0326 5.98273C13.1326 5.96273 13.2276 5.99273 13.3026 6.05273C13.3176 6.06273 13.3326 6.06773 13.3426 6.07773L14.3776 7.15773C14.3926 7.17273 14.3976 7.19273 14.4076 7.20773C14.4576 7.28773 14.4826 7.37773 14.4576 7.46773Z" fill="#F77F00"/>
<path d="M12.4976 11.7245C12.4166 11.832 12.3476 11.9485 12.2966 12.075C12.1866 12.3495 12.3831 12.65 12.6791 12.65H14.7821C15.0776 12.65 15.2746 12.3495 15.1646 12.075C14.9366 11.507 14.3806 11.1055 13.7311 11.1055C13.6031 11.1055 13.4806 11.125 13.3621 11.1545C13.0116 11.241 12.7086 11.4445 12.4986 11.7245H12.4976Z" fill="#C50010"/>
<path d="M17.4137 8.17188H16.8438C17.4137 8.79637 17.7397 9.50687 17.7397 10.2624C17.7397 10.5754 17.6837 10.8804 17.5782 11.1749C17.5332 11.3009 17.4767 11.4249 17.4132 11.5464C17.4017 11.5689 17.3922 11.5914 17.3797 11.6134L17.0457 12.3529H17.4137C18.5682 12.3529 19.5042 11.4169 19.5042 10.2624C19.5042 9.10787 18.5682 8.17188 17.4137 8.17188Z" fill="#4E5968"/>
<path d="M2.4515 11.2319C2.4485 11.2249 2.4445 11.2174 2.442 11.2104C2.387 11.0629 2.344 10.9124 2.315 10.7594L2.31 10.7484H2.312V10.7499C2.282 10.5894 2.2645 10.4269 2.2645 10.2624C2.2645 9.50687 2.5905 8.79637 3.1605 8.17188H2.5905C1.436 8.17188 0.5 9.10787 0.5 10.2624C0.5 11.4169 1.436 12.3529 2.5905 12.3529H2.9965L2.7975 11.8884C2.655 11.6769 2.537 11.4579 2.451 11.2324L2.4515 11.2319Z" fill="#4E5968"/>
<path d="M17.3973 11.5703C17.3623 11.6363 17.3223 11.7008 17.2823 11.7653C17.2548 11.8093 17.2293 11.8533 17.1993 11.8963C17.1363 11.9883 17.0688 12.0788 16.9958 12.1678C16.9858 12.1798 16.9758 12.1918 16.9658 12.2038C16.8823 12.3033 16.7938 12.4013 16.6988 12.4963C16.6213 12.5743 16.5308 12.6468 16.4453 12.7213C16.3793 12.7788 16.3193 12.8393 16.2493 12.8953C16.2098 12.9268 16.1708 12.9583 16.1298 12.9893C15.9483 13.1263 15.7563 13.2583 15.5493 13.3818C15.5428 13.3858 15.5368 13.3903 15.5303 13.3938C15.3243 13.5163 15.1018 13.6288 14.8728 13.7373C14.7968 13.7733 14.7183 13.8068 14.6403 13.8408C13.3473 14.4058 11.7453 14.7453 10.0008 14.7453C8.26675 14.7453 6.67425 14.4093 5.38525 13.8508C5.28675 13.8083 5.18925 13.7648 5.09425 13.7198C4.93225 13.6423 4.77775 13.5603 4.62725 13.4758C4.55925 13.4378 4.48775 13.4013 4.42225 13.3618C4.20725 13.2318 4.00275 13.0958 3.81575 12.9513C3.81125 12.9478 3.80725 12.9438 3.80275 12.9403C3.71325 12.8708 3.63875 12.7948 3.55675 12.7218C3.47225 12.6468 3.38075 12.5748 3.30375 12.4973C3.09875 12.2918 2.92925 12.0733 2.78125 11.8493L2.79875 11.8908L2.99775 12.3553L3.67675 13.9423H3.68575C4.18425 15.8703 6.53375 17.3508 10.0013 17.3508C13.4688 17.3508 15.8183 15.8708 16.3168 13.9423H16.3253L17.0428 12.3553L17.3768 11.6158L17.3973 11.5703Z" fill="#4E5968"/>
<path d="M10.4248 2.88407C10.2798 3.72407 9.48479 4.28907 8.64979 4.14407C8.53479 4.12407 8.42479 4.08907 8.31979 4.04407C8.02979 4.38407 7.57979 4.56907 7.10979 4.48407C6.40479 4.36407 5.92979 3.68407 6.04979 2.97407C6.16979 2.26407 6.84479 1.78407 7.55479 1.90907H7.55979C7.85979 1.33407 8.49979 0.989065 9.17479 1.10407C10.0098 1.24907 10.5698 2.04407 10.4248 2.88407Z" fill="#D5D5D5"/>
<path d="M11.8769 4.45528C12.4864 4.45528 12.9804 3.95928 12.9804 3.34678C12.9804 2.73428 12.4864 2.23828 11.8769 2.23828C11.2674 2.23828 10.7734 2.73428 10.7734 3.34678C10.7734 3.95928 11.2674 4.45528 11.8769 4.45528Z" fill="#D5D5D5"/>
</g>
<defs>
<clipPath id="clip0_423_2766">
<rect width="20" height="20" fill="white"/>
</clipPath>
</defs>
</svg>
