<svg width="20" height="20" viewBox="0 0 20 20" fill="none" xmlns="http://www.w3.org/2000/svg">
<g clip-path="url(#clip0_423_1220)">
<path d="M15.1046 5.14869L14.9716 5.01219C14.6376 4.67019 14.2666 4.38769 13.8751 4.15319C11.8176 2.92019 9.11408 3.16569 7.31658 4.91969L3.26008 8.87969C2.29808 9.81869 2.68258 11.8302 4.06058 13.7332L4.43158 13.3712C3.42558 11.8607 3.17608 10.3147 3.93658 9.57269C4.90108 8.63119 7.11958 9.33919 8.89158 11.1547C10.6636 12.9702 11.3181 15.2047 10.3536 16.1462C9.57808 16.9032 7.99208 16.5922 6.47908 15.4982L6.12308 15.8457C7.99258 17.2692 9.99408 17.7022 10.9561 16.7632L15.0126 12.8032C16.8096 11.0487 17.1201 8.35219 15.9376 6.26519C15.7126 5.86769 15.4391 5.49019 15.1051 5.14819L15.1046 5.14869Z" fill="#F77F00"/>
<path d="M7.04189 12.4829L7.44839 12.8994C7.90539 13.3679 7.89639 14.1184 7.42839 14.5754L6.48089 15.5004C7.99389 16.5944 9.57989 16.9059 10.3554 16.1484C11.3199 15.2069 10.6654 12.9719 8.89339 11.1569C7.12139 9.34144 4.90289 8.63344 3.93839 9.57494C3.17789 10.3169 3.42739 11.8629 4.43339 13.3734L5.36589 12.4629C5.83439 12.0059 6.58439 12.0149 7.04189 12.4834V12.4829Z" fill="#E32939"/>
<path d="M19.4957 4.55573C19.4857 5.37073 18.8157 6.02073 18.0007 6.01073L17.0707 6.00073V6.00573L16.2057 5.99573L15.9307 6.26573C15.7057 5.87073 15.4307 5.49073 15.1007 5.15073L14.9657 5.01073C14.6307 4.67073 14.2607 4.39073 13.8707 4.15573L14.1457 3.88073L14.1607 3.01573L14.1707 2.09073C14.1807 1.27573 14.8457 0.625734 15.6607 0.635734C16.4757 0.645734 17.1307 1.31073 17.1207 2.12573L17.1107 3.05073L18.0407 3.06073C18.8507 3.07073 19.5057 3.74073 19.4957 4.55573Z" fill="#D0D5DA"/>
<path d="M7.42228 14.5736L6.47228 15.4986L6.11728 15.8436L5.84728 16.1136L5.83228 16.9786H5.82728L5.81728 17.9086C5.80728 18.7236 5.13728 19.3736 4.32228 19.3636C3.50728 19.3536 2.85728 18.6886 2.86727 17.8736L2.87728 16.9436L1.95228 16.9286C1.14227 16.9186 0.487275 16.2536 0.497275 15.4386C0.507275 14.6236 1.17727 13.9686 1.99227 13.9786L2.91228 13.9936L3.77728 14.0036L4.05728 13.7336L4.42728 13.3686L5.35728 12.4586C5.82728 12.0036 6.57728 12.0136 7.03728 12.4786L7.44228 12.8986C7.89728 13.3636 7.89228 14.1136 7.42228 14.5736Z" fill="#D0D5DA"/>
</g>
<defs>
<clipPath id="clip0_423_1220">
<rect width="20" height="20" fill="white"/>
</clipPath>
</defs>
</svg>
