<svg width="70" height="70" viewBox="0 0 70 70" fill="none" xmlns="http://www.w3.org/2000/svg">
<rect width="70" height="70" rx="35" fill="white"/>
<path d="M48.4145 28.1226C48.0932 26.8935 47.1434 25.9258 45.9391 25.5968C43.7564 25 35 25 35 25C35 25 26.2436 25 24.0609 25.5968C22.8566 25.9258 21.9068 26.8935 21.5855 28.1226C21 30.3516 21 35 21 35C21 35 21 39.6484 21.5855 41.8774C21.9068 43.1065 22.8566 44.0742 24.0609 44.4032C26.2452 45 35 45 35 45C35 45 43.7564 45 45.9391 44.4032C47.1434 44.0742 48.0932 43.1065 48.4145 41.8774C49 39.65 49 35 49 35C49 35 49 30.3516 48.4145 28.1226Z" fill="#FF0006"/>
<path d="M33.2588 38.6853C32.9255 38.8818 32.5049 38.6415 32.5049 38.2545V31.751C32.5049 31.3641 32.9255 31.1238 33.2588 31.3203L38.7743 34.5721C39.1024 34.7655 39.1024 35.2401 38.7743 35.4335L33.2588 38.6853Z" fill="white"/>
</svg>
