<?xml version="1.0" encoding="UTF-8"?>
<svg version="1.1" xmlns="http://www.w3.org/2000/svg" width="12" height="13">
<path d="M0 0 C3.0625 0.3125 3.0625 0.3125 4.7421875 1.5078125 C6.52149579 3.93988478 6.36607277 5.52079896 6.25 8.5 C6.22292969 9.40105469 6.19585937 10.30210938 6.16796875 11.23046875 C6.13316406 11.91753906 6.09835937 12.60460938 6.0625 13.3125 C-2.10972723 12.96984896 -2.10972723 12.96984896 -5.0625 10.625 C-6.2509634 7.48406102 -5.84138228 5.51085267 -4.9375 2.3125 C-2.9375 0.3125 -2.9375 0.3125 0 0 Z M-0.9375 2.3125 C-1.5975 3.9625 -2.2575 5.6125 -2.9375 7.3125 C-1.9475 8.3025 -0.9575 9.2925 0.0625 10.3125 C0.0625 9.6525 0.0625 8.9925 0.0625 8.3125 C1.0525 8.3125 2.0425 8.3125 3.0625 8.3125 C3.0625 6.6625 3.0625 5.0125 3.0625 3.3125 C1.7425 2.9825 0.4225 2.6525 -0.9375 2.3125 Z " fill="#444444" transform="translate(5.9375,-0.3125)"/>
</svg>
