<?xml version="1.0" encoding="UTF-8"?>
<svg version="1.1" xmlns="http://www.w3.org/2000/svg" width="12" height="12">
<path d="M0 0 C1.65 0 3.3 0 5 0 C6.32 3.96 7.64 7.92 9 12 C7.68 12 6.36 12 5 12 C5 11.01 5 10.02 5 9 C3.02463255 9.34786708 3.02463255 9.34786708 1 10 C0.67 10.66 0.34 11.32 0 12 C-0.99 12 -1.98 12 -3 12 C-2.68950274 10.56206608 -2.3765224 9.1246682 -2.0625 7.6875 C-1.88847656 6.88699219 -1.71445312 6.08648437 -1.53515625 5.26171875 C-1 3 -1 3 0 0 Z M2 3 C2 4.32 2 5.64 2 7 C2.66 6.67 3.32 6.34 4 6 C3.34 5.01 2.68 4.02 2 3 Z " fill="#E55245" transform="translate(3,0)"/>
</svg>
