<svg width="171" height="171" viewBox="0 0 171 171" fill="none" xmlns="http://www.w3.org/2000/svg">
<path d="M86.7979 12.063L87.8857 1.9395L89.1116 2.07122L88.6272 6.57936L94.0251 7.15935L94.5095 2.65121L95.7354 2.78293L94.6476 12.9065L93.4217 12.7748L93.9082 8.24684L88.5103 7.66685L88.0238 12.1948L86.7979 12.063Z" fill="white"/>
<path d="M104.21 14.9305C103.749 14.7855 103.357 14.567 103.035 14.275C102.715 13.9797 102.496 13.6314 102.379 13.2298C102.263 12.8251 102.279 12.3856 102.428 11.9113C102.559 11.4939 102.747 11.1813 102.993 10.9737C103.24 10.7628 103.524 10.6263 103.846 10.564C104.168 10.5018 104.506 10.4864 104.861 10.5179C105.22 10.5472 105.576 10.5929 105.928 10.6549C106.389 10.7369 106.761 10.8069 107.045 10.8648C107.333 10.9206 107.552 10.9319 107.701 10.8989C107.854 10.8669 107.958 10.7607 108.015 10.5805L108.027 10.5425C108.174 10.0745 108.16 9.67068 107.985 9.33096C107.813 8.99224 107.47 8.74197 106.955 8.58014C106.42 8.41236 105.964 8.39782 105.587 8.53652C105.21 8.67522 104.918 8.85802 104.712 9.08493L103.768 8.37189C104.097 7.98875 104.458 7.72349 104.852 7.57611C105.25 7.42657 105.652 7.36185 106.059 7.38196C106.47 7.39991 106.859 7.46646 107.226 7.58162C107.46 7.65508 107.72 7.76793 108.006 7.92016C108.296 8.07021 108.556 8.2753 108.787 8.5354C109.021 8.79651 109.179 9.12918 109.261 9.53343C109.342 9.93768 109.292 10.4291 109.11 11.0078L107.603 15.8081L106.484 15.4566L106.794 14.47L106.737 14.4522C106.611 14.5864 106.432 14.7159 106.198 14.8406C105.964 14.9652 105.681 15.0446 105.347 15.0788C105.013 15.1129 104.634 15.0635 104.21 14.9305ZM104.697 13.9785C105.14 14.1175 105.54 14.1477 105.898 14.069C106.26 13.9914 106.561 13.8394 106.802 13.6129C107.047 13.3874 107.217 13.1229 107.312 12.8193L107.634 11.7948C107.568 11.8368 107.448 11.8562 107.271 11.853C107.099 11.8477 106.904 11.8296 106.684 11.7989C106.468 11.766 106.259 11.7314 106.055 11.6951C105.855 11.6567 105.692 11.6265 105.567 11.6046C105.264 11.5512 104.973 11.5275 104.693 11.5335C104.418 11.5373 104.176 11.5986 103.969 11.7176C103.765 11.8344 103.619 12.0351 103.529 12.3197C103.407 12.7086 103.459 13.0479 103.684 13.3374C103.913 13.6248 104.251 13.8385 104.697 13.9785Z" fill="white"/>
<path d="M113.173 20.7204L118.103 11.4495L119.104 11.9817L118.534 13.0528L118.657 13.1181C118.795 13.0415 118.98 12.9483 119.211 12.8384C119.447 12.7272 119.73 12.6676 120.061 12.6596C120.396 12.6502 120.783 12.7622 121.222 12.9956C121.79 13.2975 122.215 13.7055 122.497 14.2196C122.779 14.7338 122.903 15.3159 122.869 15.9659C122.835 16.616 122.63 17.2951 122.253 18.0033C121.874 18.7174 121.423 19.2717 120.902 19.6664C120.382 20.0582 119.831 20.2831 119.248 20.3411C118.667 20.3962 118.095 20.2744 117.533 19.9757C117.1 19.7454 116.792 19.4893 116.607 19.2074C116.425 18.9226 116.312 18.6506 116.27 18.3916C116.229 18.1296 116.203 17.9169 116.192 17.7536L116.105 17.7069L114.209 21.2713L113.173 20.7204ZM117.329 15.3623C117.058 15.8715 116.894 16.3603 116.836 16.8289C116.78 17.2946 116.837 17.7134 117.007 18.0854C117.179 18.4544 117.472 18.7494 117.888 18.9704C118.321 19.2007 118.743 19.2787 119.154 19.2045C119.57 19.1289 119.954 18.9354 120.307 18.624C120.665 18.3112 120.972 17.9149 121.227 17.4349C121.479 16.9608 121.633 16.4947 121.689 16.0364C121.749 15.5768 121.692 15.158 121.518 14.78C121.348 14.4006 121.044 14.0942 120.605 13.8608C120.183 13.6368 119.772 13.5553 119.372 13.6164C118.973 13.6746 118.599 13.8551 118.251 14.1577C117.904 14.4574 117.596 14.8589 117.329 15.3623Z" fill="white"/>
<path d="M124.766 27.1132L131.327 18.9157L132.212 19.624L131.454 20.5711L131.563 20.6581C131.713 20.6084 131.911 20.551 132.159 20.4858C132.411 20.4202 132.7 20.414 133.027 20.4674C133.358 20.5203 133.718 20.7021 134.106 21.0127C134.608 21.4145 134.95 21.8942 135.132 22.4517C135.314 23.0092 135.328 23.6042 135.174 24.2367C135.021 24.8692 134.693 25.4986 134.192 26.1248C133.686 26.7562 133.141 27.2175 132.556 27.5088C131.972 27.7975 131.389 27.9164 130.805 27.8655C130.224 27.812 129.685 27.5865 129.188 27.1888C128.805 26.8823 128.549 26.5735 128.421 26.2624C128.294 25.9487 128.234 25.6606 128.24 25.3982C128.248 25.1331 128.262 24.9194 128.282 24.7568L128.204 24.6947L125.682 27.8464L124.766 27.1132ZM129.842 22.6174C129.481 23.0676 129.229 23.5176 129.086 23.9674C128.944 24.4146 128.923 24.8367 129.021 25.2337C129.121 25.6282 129.355 25.9725 129.723 26.2666C130.106 26.5731 130.506 26.728 130.924 26.7312C131.346 26.7339 131.76 26.6149 132.164 26.3743C132.574 26.1332 132.949 25.8005 133.288 25.3761C133.624 24.9569 133.861 24.5273 134.001 24.0874C134.146 23.6469 134.167 23.2248 134.066 22.821C133.969 22.4168 133.727 22.0593 133.339 21.7486C132.966 21.4504 132.577 21.2942 132.173 21.2801C131.77 21.2635 131.369 21.3716 130.971 21.6044C130.574 21.8346 130.198 22.1723 129.842 22.6174Z" fill="white"/>
<path d="M135.263 35.9454C135.133 35.7952 135.029 35.6505 134.952 35.5111C134.872 35.3739 134.824 35.273 134.808 35.2084L135.784 34.7559C135.916 35.0189 136.061 35.2265 136.219 35.3787C136.378 35.5309 136.579 35.6132 136.822 35.6258C137.065 35.643 137.38 35.5783 137.766 35.4317L138.36 35.2059L142.307 28.0419L143.141 29.0031L139.927 34.5837L139.979 34.6438L145.956 32.2472L146.79 33.2084L138.057 36.4955C137.664 36.6439 137.299 36.7215 136.963 36.7282C136.624 36.7371 136.313 36.6752 136.031 36.5425C135.751 36.4123 135.495 36.2133 135.263 35.9454Z" fill="white"/>
<path d="M145.49 43.6824L154.289 38.5599L156.08 41.6362C156.437 42.2492 156.625 42.8165 156.645 43.338C156.668 43.8579 156.558 44.3186 156.316 44.7201C156.077 45.12 155.743 45.445 155.313 45.6951C154.935 45.9153 154.584 46.0297 154.259 46.0385C153.936 46.0501 153.64 45.9888 153.37 45.8545C153.101 45.723 152.859 45.5512 152.644 45.3392L152.558 45.3892C152.698 45.6685 152.761 45.9942 152.747 46.3664C152.734 46.7385 152.62 47.1096 152.406 47.4797C152.192 47.8498 151.853 48.1699 151.389 48.44C150.948 48.6968 150.492 48.8275 150.023 48.8321C149.554 48.8367 149.091 48.6828 148.633 48.3703C148.175 48.0578 147.744 47.555 147.34 46.8618L145.49 43.6824ZM147.055 44.1977L148.286 46.3116C148.691 47.0076 149.113 47.4234 149.553 47.5588C149.996 47.6954 150.412 47.6512 150.798 47.426C151.096 47.2526 151.327 47.0166 151.491 46.7181C151.657 46.4179 151.735 46.0832 151.723 45.7141C151.714 45.3434 151.598 44.9661 151.375 44.5823L150.114 42.4168L147.055 44.1977ZM151.042 41.8765L152.193 43.853C152.38 44.1738 152.611 44.4264 152.887 44.6108C153.165 44.7981 153.463 44.901 153.78 44.9194C154.099 44.9406 154.414 44.8612 154.723 44.6812C155.11 44.456 155.359 44.1305 155.472 43.7045C155.587 43.2768 155.475 42.7708 155.135 42.1865L153.964 40.1757L151.042 41.8765Z" fill="white"/>
<path d="M152.23 56.095L159.349 53.3313L159.773 54.4251L152.655 57.1888L152.23 56.095ZM160.751 53.4268C160.668 53.2136 160.669 53.0016 160.755 52.7908C160.841 52.583 160.986 52.4395 161.19 52.3603C161.394 52.2812 161.598 52.2891 161.802 52.3841C162.007 52.4822 162.151 52.6379 162.234 52.8511C162.317 53.0643 162.315 53.2747 162.229 53.4825C162.143 53.6934 161.999 53.8384 161.795 53.9176C161.591 53.9967 161.386 53.9873 161.181 53.8891C160.977 53.7941 160.834 53.64 160.751 53.4268Z" fill="white"/>
<path d="M155.211 64.0242L162.63 62.2162L162.899 63.3175L161.778 63.5906L161.797 63.6678C162.197 63.7136 162.555 63.8858 162.87 64.1843C163.185 64.4828 163.396 64.8542 163.504 65.2986C163.525 65.3823 163.549 65.4874 163.576 65.6137C163.603 65.7401 163.622 65.8363 163.631 65.9022L162.472 66.1847C162.472 66.1438 162.465 66.0517 162.451 65.9085C162.44 65.7678 162.416 65.6217 162.38 65.4704C162.292 65.1097 162.138 64.8061 161.917 64.5596C161.701 64.3156 161.441 64.1436 161.136 64.0437C160.836 63.9463 160.519 63.9384 160.184 64.02L155.489 65.1642L155.211 64.0242Z" fill="white"/>
<path d="M165.445 76.8521L164.456 76.9519L164.059 73.0144L165.048 72.9147L165.445 76.8521ZM166.984 73.8788L167.102 75.0462L159.86 75.7762C159.53 75.8095 159.288 75.8822 159.132 75.9945C158.981 76.1097 158.885 76.246 158.844 76.4033C158.807 76.5636 158.797 76.7295 158.814 76.901C158.827 77.0296 158.844 77.1345 158.866 77.2156C158.891 77.2964 158.91 77.361 158.925 77.4094L157.901 77.7526C157.863 77.6764 157.822 77.569 157.778 77.4301C157.731 77.2917 157.696 77.1136 157.674 76.896C157.641 76.5662 157.679 76.2359 157.789 75.905C157.899 75.5774 158.089 75.2951 158.358 75.0581C158.628 74.8244 158.984 74.6853 159.426 74.6407L166.984 73.8788Z" fill="white"/>
<path d="M162.959 85.5753L158.373 85.3105L158.44 84.1391L168.605 84.7261L168.537 85.8974L164.805 85.6819L164.799 85.7812C165.183 85.9826 165.48 86.2686 165.691 86.6394C165.905 87.0136 165.995 87.5002 165.96 88.0991C165.93 88.6186 165.8 89.0675 165.569 89.4459C165.341 89.8246 165.008 90.1091 164.568 90.2995C164.132 90.4934 163.587 90.5715 162.931 90.5336L158.087 90.2539L158.155 89.0826L162.92 89.3577C163.525 89.3927 164.002 89.2625 164.351 88.9673C164.704 88.6756 164.896 88.2534 164.928 87.7008C164.95 87.317 164.888 86.9682 164.744 86.6544C164.599 86.3439 164.376 86.092 164.075 85.8987C163.774 85.7087 163.402 85.6009 162.959 85.5753Z" fill="white"/>
<path d="M156.594 100.326C156.748 99.7087 157.04 99.2024 157.469 98.8073C157.902 98.413 158.438 98.1536 159.077 98.0291C159.719 97.9055 160.433 97.9413 161.218 98.1367C161.996 98.3304 162.638 98.632 163.144 99.0415C163.65 99.4509 164 99.9325 164.193 100.486C164.387 101.04 164.406 101.629 164.251 102.253C164.131 102.735 163.955 103.096 163.725 103.336C163.497 103.58 163.263 103.75 163.024 103.848C162.787 103.949 162.593 104.026 162.444 104.078L162.42 104.174L166.067 105.082L165.784 106.22L155.903 103.761L156.177 102.661L157.316 102.945L157.349 102.809C157.235 102.692 157.094 102.531 156.927 102.325C156.763 102.12 156.636 101.855 156.546 101.528C156.46 101.203 156.476 100.802 156.594 100.326ZM157.579 100.735C157.465 101.192 157.488 101.608 157.648 101.982C157.81 102.357 158.084 102.68 158.467 102.949C158.854 103.22 159.327 103.425 159.887 103.564C160.44 103.702 160.944 103.742 161.399 103.684C161.857 103.628 162.242 103.47 162.552 103.213C162.865 102.956 163.079 102.596 163.194 102.133C163.314 101.651 163.291 101.218 163.123 100.835C162.958 100.455 162.685 100.133 162.303 99.8671C161.924 99.6054 161.475 99.4097 160.953 99.28C160.426 99.1487 159.927 99.1099 159.456 99.1634C158.987 99.2209 158.586 99.3773 158.253 99.6325C157.922 99.8916 157.697 100.259 157.579 100.735Z" fill="white"/>
<path d="M152.762 112.817C152.963 112.377 153.228 112.015 153.557 111.732C153.889 111.45 154.262 111.275 154.675 111.208C155.091 111.143 155.525 111.213 155.977 111.419C156.376 111.6 156.663 111.825 156.839 112.095C157.018 112.366 157.118 112.665 157.14 112.992C157.163 113.319 157.136 113.656 157.062 114.005C156.988 114.357 156.9 114.705 156.795 115.047C156.657 115.494 156.542 115.855 156.449 116.129C156.359 116.409 156.321 116.624 156.335 116.777C156.348 116.932 156.441 117.049 156.613 117.127L156.649 117.143C157.095 117.347 157.498 117.382 157.856 117.251C158.213 117.122 158.504 116.812 158.728 116.32C158.96 115.81 159.03 115.36 158.939 114.969C158.848 114.577 158.702 114.265 158.502 114.032L159.326 113.183C159.665 113.557 159.884 113.948 159.982 114.357C160.082 114.77 160.097 115.177 160.027 115.579C159.959 115.984 159.845 116.362 159.686 116.712C159.584 116.936 159.44 117.18 159.254 117.444C159.069 117.714 158.834 117.947 158.547 118.144C158.26 118.345 157.91 118.46 157.499 118.492C157.088 118.523 156.606 118.413 156.054 118.162L151.475 116.077L151.961 115.009L152.902 115.438L152.927 115.383C152.809 115.242 152.703 115.048 152.608 114.801C152.513 114.554 152.469 114.262 152.476 113.927C152.483 113.592 152.578 113.222 152.762 112.817ZM153.647 113.417C153.455 113.839 153.376 114.233 153.41 114.598C153.443 114.966 153.557 115.284 153.752 115.551C153.946 115.822 154.187 116.023 154.477 116.155L155.454 116.6C155.421 116.53 155.416 116.407 155.441 116.233C155.467 116.063 155.509 115.871 155.567 115.657C155.626 115.447 155.686 115.243 155.747 115.045C155.81 114.851 155.859 114.694 155.896 114.572C155.987 114.278 156.046 113.992 156.074 113.714C156.104 113.44 156.073 113.192 155.981 112.972C155.89 112.755 155.708 112.586 155.437 112.462C155.066 112.293 154.723 112.303 154.408 112.491C154.095 112.683 153.841 112.992 153.647 113.417Z" fill="white"/>
<path d="M145.541 121.428C145.653 121.264 145.767 121.127 145.883 121.018C145.996 120.906 146.081 120.834 146.14 120.802L146.824 121.633C146.602 121.826 146.438 122.019 146.33 122.211C146.223 122.402 146.194 122.618 146.243 122.856C146.288 123.096 146.43 123.384 146.669 123.721L147.037 124.239L154.964 126.253L154.244 127.302L148.034 125.598L147.989 125.664L151.815 130.844L151.095 131.894L145.713 124.271C145.47 123.928 145.303 123.594 145.212 123.27C145.118 122.944 145.099 122.628 145.157 122.322C145.212 122.019 145.34 121.721 145.541 121.428Z" fill="white"/>
<path d="M147.81 138.774L148.59 139.54L143.239 144.988L142.459 144.222L144.702 141.938L138.219 135.57L139.083 134.69L145.566 141.058L147.81 138.774Z" fill="white"/>
<path d="M129.057 143.551C129.618 143.15 130.205 142.932 130.819 142.896C131.431 142.862 132.027 143 132.607 143.311C133.185 143.623 133.703 144.1 134.162 144.741C134.624 145.388 134.911 146.037 135.021 146.687C135.129 147.34 135.068 147.95 134.838 148.517C134.606 149.087 134.209 149.572 133.649 149.973C133.088 150.374 132.502 150.591 131.89 150.625C131.276 150.661 130.679 150.521 130.1 150.207C129.517 149.894 128.995 149.414 128.532 148.766C128.073 148.125 127.791 147.479 127.685 146.83C127.577 146.182 127.639 145.573 127.871 145.004C128.101 144.436 128.496 143.952 129.057 143.551ZM129.67 144.408C129.244 144.713 128.971 145.073 128.853 145.488C128.734 145.903 128.735 146.335 128.858 146.786C128.98 147.236 129.19 147.669 129.487 148.084C129.783 148.499 130.126 148.839 130.515 149.103C130.903 149.367 131.314 149.511 131.747 149.536C132.18 149.56 132.61 149.42 133.036 149.116C133.462 148.811 133.733 148.45 133.85 148.032C133.967 147.615 133.963 147.179 133.839 146.726C133.715 146.273 133.504 145.839 133.207 145.424C132.91 145.009 132.569 144.67 132.182 144.409C131.796 144.147 131.387 144.006 130.956 143.984C130.524 143.962 130.096 144.104 129.67 144.408Z" fill="white"/>
<path d="M126.499 157.841L125.223 158.446L120.635 155.361L120.527 155.412L120.012 160.916L118.736 161.521L119.496 154.536L117.699 150.745L118.813 150.217L120.61 154.008L126.499 157.841Z" fill="white"/>
<path d="M106.032 155.197C106.699 155.023 107.326 155.029 107.912 155.215C108.495 155.402 109.003 155.744 109.434 156.241C109.862 156.74 110.175 157.37 110.374 158.133C110.575 158.903 110.611 159.611 110.482 160.258C110.349 160.906 110.074 161.454 109.657 161.902C109.236 162.351 108.692 162.662 108.025 162.836C107.358 163.01 106.733 163.004 106.15 162.817C105.564 162.631 105.056 162.287 104.627 161.786C104.195 161.285 103.879 160.65 103.678 159.881C103.479 159.117 103.446 158.413 103.579 157.769C103.709 157.125 103.985 156.579 104.405 156.13C104.823 155.682 105.365 155.371 106.032 155.197ZM106.298 156.217C105.792 156.349 105.409 156.588 105.149 156.933C104.89 157.278 104.737 157.683 104.69 158.147C104.643 158.611 104.685 159.091 104.813 159.584C104.942 160.078 105.141 160.518 105.409 160.904C105.678 161.289 106.01 161.571 106.406 161.748C106.801 161.926 107.253 161.949 107.759 161.816C108.266 161.684 108.649 161.444 108.907 161.096C109.166 160.747 109.318 160.339 109.364 159.872C109.41 159.404 109.368 158.924 109.239 158.43C109.11 157.936 108.912 157.498 108.644 157.115C108.377 156.733 108.046 156.455 107.651 156.28C107.256 156.106 106.805 156.085 106.298 156.217Z" fill="white"/>
<path d="M91.2969 161.211L91.6126 165.714L90.4422 165.796L89.908 158.178L91.0785 158.096L91.1689 159.386L91.2482 159.38C91.3996 158.981 91.6543 158.632 92.0122 158.335C92.3703 158.04 92.8371 157.873 93.4123 157.833C93.8884 157.799 94.319 157.874 94.7039 158.056C95.089 158.242 95.4022 158.539 95.6435 158.947C95.885 159.359 96.0285 159.889 96.0739 160.537L96.4133 165.377L95.2429 165.459L94.9091 160.698C94.8701 160.143 94.6836 159.711 94.3497 159.402C94.0124 159.093 93.6007 158.956 93.1147 158.99C92.8238 159.01 92.5331 159.106 92.2426 159.275C91.9489 159.446 91.7103 159.692 91.5269 160.013C91.3401 160.335 91.2635 160.735 91.2969 161.211Z" fill="white"/>
<path d="M82.0845 158.532L80.7742 168.629L79.5515 168.471L80.135 163.974L74.7511 163.276L74.1677 167.772L72.945 167.613L74.2552 157.516L75.4779 157.675L74.8919 162.191L80.2757 162.89L80.8618 158.374L82.0845 158.532Z" fill="white"/>
<path d="M64.7362 155.28C65.1945 155.435 65.5813 155.662 65.8964 155.961C66.2104 156.264 66.4215 156.617 66.5297 157.021C66.6368 157.428 66.6106 157.867 66.4512 158.338C66.3109 158.752 66.1155 159.061 65.8651 159.263C65.6136 159.468 65.3264 159.598 65.0033 159.653C64.6802 159.708 64.3416 159.716 63.9875 159.677C63.6293 159.64 63.2747 159.586 62.9239 159.516C62.4653 159.424 62.0946 159.346 61.812 159.281C61.5251 159.219 61.3066 159.203 61.1566 159.233C61.0034 159.261 60.8966 159.365 60.836 159.544L60.8232 159.582C60.6659 160.046 60.6708 160.45 60.8379 160.794C61.0019 161.136 61.3398 161.394 61.8515 161.568C62.382 161.747 62.8373 161.772 63.2174 161.642C63.5974 161.511 63.8933 161.335 64.105 161.113L65.0323 161.847C64.6951 162.222 64.3281 162.48 63.9312 162.618C63.5302 162.759 63.1264 162.815 62.7199 162.785C62.3091 162.758 61.9217 162.683 61.5575 162.56C61.3252 162.481 61.0679 162.363 60.7857 162.204C60.4993 162.047 60.2435 161.837 60.0183 161.571C59.79 161.305 59.6396 160.969 59.5671 160.563C59.4946 160.157 59.5556 159.667 59.7502 159.092L61.3636 154.327L62.475 154.703L62.1433 155.683L62.1999 155.702C62.3283 155.57 62.5108 155.445 62.7472 155.326C62.9836 155.206 63.269 155.133 63.6035 155.106C63.9379 155.08 64.3155 155.137 64.7362 155.28ZM64.2287 156.221C63.7891 156.072 63.3895 156.033 63.0296 156.104C62.6667 156.173 62.362 156.318 62.1157 156.539C61.8663 156.759 61.6905 157.02 61.5885 157.321L61.2441 158.339C61.3103 158.298 61.4315 158.281 61.6075 158.288C61.7794 158.298 61.9747 158.32 62.1936 158.356C62.4083 158.393 62.6172 158.433 62.8204 158.473C63.0193 158.516 63.1811 158.55 63.3057 158.575C63.6073 158.635 63.898 158.665 64.1778 158.665C64.4535 158.668 64.6964 158.612 64.9065 158.497C65.1125 158.385 65.2633 158.188 65.359 157.905C65.4897 157.519 65.4457 157.179 65.227 156.884C65.0041 156.592 64.6713 156.371 64.2287 156.221Z" fill="white"/>
<path d="M55.9023 149.291L50.7685 158.45L49.7798 157.896L50.3729 156.838L50.2514 156.77C50.1114 156.843 49.9247 156.932 49.6912 157.037C49.4533 157.143 49.1688 157.196 48.8379 157.197C48.5024 157.199 48.1178 157.078 47.6842 156.835C47.1233 156.521 46.7075 156.104 46.4367 155.583C46.166 155.063 46.0549 154.478 46.1034 153.829C46.1519 153.18 46.3722 152.506 46.7644 151.806C47.1598 151.101 47.6225 150.556 48.1525 150.173C48.681 149.793 49.2371 149.581 49.8209 149.535C50.4031 149.493 50.9718 149.628 51.5269 149.939C51.9548 150.179 52.2577 150.441 52.4356 150.727C52.6119 151.016 52.7184 151.291 52.7551 151.55C52.7901 151.813 52.8112 152.026 52.8183 152.19L52.9051 152.239L54.8789 148.717L55.9023 149.291ZM51.6292 154.556C51.9112 154.053 52.0862 153.567 52.1543 153.1C52.2208 152.636 52.1731 152.216 52.0113 151.84C51.8479 151.468 51.5609 151.166 51.1503 150.936C50.7224 150.696 50.3022 150.609 49.8895 150.674C49.4724 150.74 49.0838 150.925 48.7237 151.229C48.3591 151.533 48.0439 151.923 47.7781 152.397C47.5156 152.865 47.3513 153.328 47.2852 153.785C47.2146 154.243 47.2623 154.663 47.4282 155.045C47.5897 155.428 47.8872 155.741 48.3209 155.984C48.7372 156.217 49.1462 156.308 49.5479 156.256C49.9479 156.206 50.3255 156.034 50.6807 155.739C51.0343 155.447 51.3505 155.053 51.6292 154.556Z" fill="white"/>
<path d="M44.4541 142.643L37.714 150.694L36.8448 149.966L37.6235 149.036L37.5168 148.947C37.3656 148.993 37.1656 149.046 36.9168 149.106C36.6633 149.166 36.3739 149.166 36.0485 149.105C35.7185 149.045 35.3629 148.855 34.9817 148.536C34.4887 148.123 34.1573 147.636 33.9875 147.075C33.8178 146.513 33.8168 145.918 33.9845 145.289C34.1523 144.66 34.4936 144.038 35.0085 143.423C35.5276 142.803 36.0831 142.354 36.6748 142.076C37.2645 141.8 37.8504 141.694 38.4324 141.758C39.0124 141.824 39.5464 142.061 40.0343 142.47C40.4104 142.785 40.6595 143.099 40.7814 143.413C40.9012 143.729 40.9551 144.019 40.943 144.281C40.9289 144.546 40.9101 144.759 40.8868 144.921L40.9631 144.985L43.5544 141.889L44.4541 142.643ZM39.2805 147.026C39.6507 146.583 39.9125 146.139 40.0659 145.693C40.2171 145.249 40.248 144.827 40.1585 144.428C40.0668 144.031 39.8406 143.682 39.4797 143.38C39.1036 143.065 38.7068 142.901 38.2892 142.889C37.867 142.877 37.4509 142.987 37.0408 143.219C36.6261 143.451 36.2443 143.775 35.8954 144.192C35.5507 144.603 35.3036 145.028 35.1541 145.464C34.9999 145.902 34.9691 146.323 35.0615 146.729C35.1493 147.135 35.3838 147.498 35.765 147.817C36.131 148.124 36.5161 148.288 36.9205 148.311C37.3227 148.337 37.7257 148.238 38.1293 148.014C38.5309 147.792 38.9146 147.463 39.2805 147.026Z" fill="white"/>
<path d="M34.1539 133.582C34.2809 133.735 34.3814 133.882 34.4554 134.023C34.5319 134.162 34.5778 134.264 34.5929 134.329L33.6067 134.76C33.4808 134.494 33.3403 134.283 33.1853 134.128C33.0302 133.972 32.8312 133.885 32.5881 133.867C32.3454 133.845 32.0293 133.902 31.6399 134.04L31.0411 134.253L26.9381 141.329L26.1252 140.349L29.4613 134.841L29.4105 134.78L23.3818 137.044L22.5689 136.065L31.3721 132.971C31.7687 132.831 32.1353 132.761 32.4718 132.762C32.8109 132.761 33.1199 132.829 33.3989 132.968C33.6757 133.104 33.9274 133.309 34.1539 133.582Z" fill="white"/>
<path d="M24.1002 125.623L15.1897 130.55L13.4673 127.434C13.1241 126.814 12.9484 126.242 12.9401 125.72C12.9289 125.2 13.0486 124.742 13.2993 124.346C13.547 123.951 13.8884 123.634 14.3235 123.393C14.7064 123.182 15.0602 123.075 15.385 123.073C15.7082 123.069 16.0033 123.137 16.2702 123.277C16.5355 123.414 16.7735 123.592 16.9843 123.808L17.0713 123.76C16.938 123.478 16.8821 123.151 16.9038 122.779C16.9255 122.407 17.0475 122.039 17.2697 121.674C17.4919 121.308 17.838 120.996 18.3079 120.736C18.7546 120.489 19.2124 120.368 19.6814 120.374C20.1505 120.38 20.6105 120.544 21.0615 120.867C21.5125 121.189 21.932 121.701 22.3201 122.403L24.1002 125.623ZM22.5465 125.073L21.3629 122.933C20.9732 122.228 20.5603 121.803 20.124 121.658C19.6833 121.511 19.2672 121.546 18.8756 121.763C18.5739 121.93 18.338 122.16 18.1677 122.455C17.9945 122.752 17.9097 123.085 17.9131 123.454C17.9136 123.825 18.0214 124.204 18.2363 124.593L19.4487 126.786L22.5465 125.073ZM18.5089 127.306L17.4023 125.304C17.2227 124.979 16.9969 124.722 16.725 124.531C16.4514 124.338 16.1561 124.228 15.839 124.203C15.5204 124.175 15.2044 124.247 14.8912 124.42C14.4996 124.637 14.2429 124.957 14.121 125.38C13.9962 125.805 14.0973 126.313 14.4245 126.905L15.5503 128.941L18.5089 127.306Z" fill="#FFB9B9"/>
<path d="M17.6397 113.071L10.4615 115.677L10.0612 114.574L17.2393 111.969L17.6397 113.071ZM9.06159 115.55C9.13961 115.765 9.13368 115.977 9.04379 116.186C8.95278 116.392 8.80445 116.532 8.59883 116.607C8.3932 116.681 8.18947 116.669 7.98763 116.569C7.78466 116.467 7.64416 116.308 7.56614 116.093C7.48811 115.878 7.49461 115.668 7.58563 115.462C7.67552 115.253 7.82327 115.111 8.0289 115.037C8.23452 114.962 8.43882 114.976 8.64179 115.079C8.84363 115.178 8.98356 115.335 9.06159 115.55Z" fill="#FFB9B9"/>
<path d="M14.8283 105.054L7.3703 106.695L7.12672 105.588L8.25319 105.34L8.23609 105.263C7.83717 105.208 7.48362 105.028 7.17545 104.722C6.86728 104.417 6.66405 104.041 6.56577 103.594C6.54725 103.51 6.52572 103.404 6.50118 103.277C6.47664 103.15 6.46049 103.054 6.45272 102.988L7.61803 102.731C7.61686 102.772 7.62188 102.864 7.63309 103.008C7.64034 103.149 7.6607 103.295 7.69418 103.447C7.77395 103.81 7.92124 104.117 8.13605 104.368C8.34691 104.617 8.60322 104.795 8.90497 104.902C9.20278 105.006 9.52 105.021 9.85665 104.947L14.5761 103.908L14.8283 105.054Z" fill="#FFB9B9"/>
<path d="M4.88555 92.015L5.87681 91.9371L6.18685 95.8824L5.19559 95.9603L4.88555 92.015ZM3.2813 94.9537L3.18938 93.784L10.4454 93.2138C10.7758 93.1879 11.0199 93.1205 11.1776 93.0117C11.3317 92.8998 11.4309 92.7657 11.4751 92.6093C11.5157 92.4498 11.5293 92.2842 11.5158 92.1124C11.5057 91.9835 11.4908 91.8783 11.4711 91.7967C11.4481 91.7154 11.4297 91.6504 11.4158 91.6016L12.4479 91.2811C12.4839 91.3581 12.5223 91.4664 12.5632 91.6062C12.6074 91.7457 12.6381 91.9244 12.6552 92.1425C12.6812 92.4729 12.6356 92.8023 12.5184 93.1307C12.401 93.4558 12.2051 93.7338 11.9307 93.9648C11.656 94.1925 11.2973 94.3238 10.8545 94.3586L3.2813 94.9537Z" fill="#FFB9B9"/>
<path d="M7.56172 83.3422L12.1409 83.7081L12.0474 84.8777L1.89795 84.0666L1.99141 82.897L5.71817 83.1948L5.72609 83.0957C5.34719 82.8859 5.05636 82.5933 4.8536 82.218C4.64781 81.8392 4.56881 81.3507 4.6166 80.7527C4.65805 80.234 4.79842 79.7881 5.03772 79.4148C5.27372 79.0413 5.61339 78.7643 6.05675 78.5836C6.49707 78.3993 7.04431 78.3333 7.69848 78.3856L12.5353 78.7721L12.4419 79.9417L7.68431 79.5615C7.0797 79.5132 6.59966 79.6328 6.24419 79.9202C5.88569 80.2041 5.68438 80.6219 5.64029 81.1737C5.60966 81.5569 5.66315 81.907 5.80075 82.2239C5.93861 82.5375 6.15583 82.7942 6.4524 82.9942C6.74923 83.1908 7.11901 83.3068 7.56172 83.3422Z" fill="#FFB9B9"/>
<path d="M14.252 68.7359C14.0845 69.3498 13.7815 69.8494 13.3431 70.2349C12.9015 70.6194 12.3599 70.8667 11.7183 70.9768C11.0736 71.086 10.3611 71.0342 9.58088 70.8213C8.80709 70.6102 8.17182 70.2943 7.67508 69.8736C7.17833 69.4529 6.83944 68.9636 6.65841 68.4058C6.47737 67.8479 6.47149 67.2588 6.64074 66.6385C6.77161 66.1589 6.95493 65.8018 7.19071 65.5672C7.42416 65.3286 7.66168 65.1632 7.90325 65.0711C8.14251 64.9749 8.33742 64.9027 8.48801 64.8544L8.51418 64.7585L4.88821 63.7692L5.19706 62.6372L15.0198 65.3174L14.7214 66.411L13.5895 66.1021L13.5529 66.2364C13.6645 66.3562 13.8017 66.5207 13.9644 66.7301C14.124 66.9385 14.2449 67.2068 14.3271 67.535C14.4061 67.8624 14.3811 68.2626 14.252 68.7359ZM13.277 68.3049C13.4009 67.8509 13.3873 67.4349 13.2362 67.057C13.0819 66.6782 12.8159 66.3497 12.4384 66.0715C12.0576 65.7924 11.589 65.5769 11.0327 65.4251C10.4827 65.275 9.97965 65.2237 9.52355 65.271C9.06425 65.3174 8.67674 65.4659 8.36102 65.7165C8.0421 65.9661 7.81982 66.3212 7.69419 66.7816C7.56332 67.2613 7.57737 67.6945 7.73633 68.0815C7.89297 68.4643 8.15891 68.7928 8.53416 69.067C8.90709 69.3371 9.35255 69.5428 9.87055 69.6842C10.3949 69.8272 10.8932 69.8773 11.3653 69.8343C11.835 69.7873 12.2394 69.64 12.5784 69.3923C12.915 69.1406 13.1479 68.7782 13.277 68.3049Z" fill="#FFB9B9"/>
<path d="M18.3618 56.336C18.1515 56.7718 17.8786 57.1277 17.543 57.4037C17.2045 57.6783 16.8281 57.8445 16.4138 57.9022C15.9966 57.9585 15.5641 57.8786 15.1163 57.6626C14.7223 57.4724 14.4403 57.2407 14.2704 56.9674C14.0976 56.6926 14.0036 56.3915 13.9886 56.0641C13.9736 55.7367 14.0074 55.3998 14.09 55.0532C14.171 54.7022 14.2677 54.3569 14.38 54.0174C14.5279 53.5735 14.6511 53.2153 14.7495 52.9426C14.8464 52.6655 14.8894 52.4507 14.8783 52.2982C14.8687 52.1427 14.7788 52.0239 14.6087 51.9418L14.5729 51.9245C14.1311 51.7113 13.7294 51.6666 13.368 51.7903C13.008 51.911 12.7106 52.2146 12.4759 52.7012C12.2324 53.2057 12.1521 53.6545 12.2347 54.0476C12.3173 54.4408 12.4559 54.7561 12.6505 54.9935L11.8084 55.8236C11.4769 55.4429 11.2667 55.0471 11.1779 54.6362C11.0875 54.221 11.0818 53.8134 11.1606 53.4135C11.238 53.0092 11.3601 52.6339 11.5272 52.2876C11.6338 52.0668 11.7831 51.826 11.9751 51.5653C12.1655 51.3003 12.4062 51.0723 12.697 50.8814C12.9893 50.6875 13.3413 50.5795 13.7531 50.5574C14.1649 50.5353 14.6439 50.656 15.1902 50.9196L19.7216 53.1059L19.2117 54.1627L18.2803 53.7133L18.2544 53.767C18.3691 53.9107 18.4712 54.1071 18.5607 54.3564C18.6502 54.6057 18.6877 54.8979 18.6731 55.2331C18.6586 55.5684 18.5548 55.936 18.3618 56.336ZM17.4903 55.7168C17.692 55.2989 17.7798 54.907 17.7539 54.5412C17.7294 54.1725 17.6226 53.8523 17.4335 53.5807C17.2458 53.3062 17.0087 53.0997 16.7221 52.9615L15.755 52.4948C15.7871 52.5655 15.7888 52.6878 15.7601 52.8616C15.7299 53.0311 15.6837 53.2222 15.6215 53.4351C15.5577 53.6435 15.4931 53.846 15.4277 54.0426C15.3607 54.2348 15.3073 54.3912 15.2675 54.5118C15.1709 54.8037 15.1052 55.0885 15.0706 55.3662C15.0344 55.6395 15.0601 55.8874 15.1478 56.11C15.2339 56.3282 15.4112 56.5021 15.6799 56.6318C16.0471 56.8089 16.3902 56.807 16.7093 56.6261C17.0269 56.4408 17.2873 56.1377 17.4903 55.7168Z" fill="#FFB9B9"/>
<path d="M25.7718 47.8909C25.6557 48.0523 25.5387 48.1866 25.4209 48.2937C25.3057 48.4028 25.2186 48.4729 25.1595 48.5039L24.4941 47.658C24.7197 47.4691 24.8883 47.2801 24.9998 47.0909C25.1114 46.9017 25.1452 46.6872 25.1012 46.4474C25.0619 46.2068 24.9264 45.9155 24.6948 45.5734L24.3381 45.0475L16.4573 42.8591L17.2002 41.8258L23.3715 43.6667L23.4179 43.6021L19.7078 38.3382L20.4508 37.3049L25.6628 45.0448C25.8979 45.3934 26.0575 45.7307 26.1416 46.0565C26.2284 46.3843 26.2398 46.7006 26.1756 47.0056C26.1134 47.3078 25.9788 47.6029 25.7718 47.8909Z" fill="#FFB9B9"/>
<path d="M23.8827 30.5038L23.1193 29.7205L28.5886 24.3912L29.3519 25.1745L27.0588 27.4089L33.4012 33.9179L32.5182 34.7784L26.1758 28.2694L23.8827 30.5038Z" fill="white"/>
<path d="M42.7401 26.1369C42.1705 26.5254 41.5784 26.7307 40.9636 26.7529C40.3516 26.7731 39.7589 26.6218 39.1855 26.2988C38.6148 25.9739 38.1072 25.4856 37.6627 24.8339C37.2145 24.1768 36.9423 23.5219 36.8462 22.8693C36.7529 22.2148 36.8273 21.6064 37.0696 21.044C37.3145 20.4797 37.7218 20.0033 38.2913 19.6148C38.8608 19.2263 39.4516 19.022 40.0637 19.0017C40.6784 18.9795 41.2721 19.1323 41.8446 19.4599C42.4199 19.7857 42.9316 20.2771 43.3799 20.9343C43.8244 21.5859 44.0923 22.2376 44.1838 22.8894C44.2781 23.5392 44.2027 24.1463 43.9577 24.7106C43.7155 25.273 43.3096 25.7485 42.7401 26.1369ZM42.1461 25.2662C42.5788 24.9711 42.8591 24.6175 42.9871 24.2052C43.1151 23.7929 43.1229 23.3603 43.0105 22.9073C42.8982 22.4544 42.6982 22.0171 42.4106 21.5954C42.123 21.1738 41.7879 20.8266 41.4053 20.5539C41.0227 20.2813 40.6152 20.128 40.1828 20.0939C39.7504 20.0599 39.3179 20.1904 38.8852 20.4855C38.4526 20.7806 38.1732 21.1357 38.0471 21.5507C37.921 21.9657 37.915 22.4011 38.0292 22.8568C38.1435 23.3124 38.3444 23.7511 38.632 24.1728C38.9196 24.5944 39.2538 24.9402 39.6345 25.2101C40.0152 25.48 40.4208 25.6306 40.8514 25.6619C41.2819 25.6932 41.7135 25.5613 42.1461 25.2662Z" fill="white"/>
<path d="M45.6191 11.9039L46.9081 11.3277L51.4257 14.5144L51.5346 14.4657L52.173 8.97426L53.4621 8.39806L52.5461 15.3641L54.2585 19.1948L53.1329 19.698L51.4205 15.8673L45.6191 11.9039Z" fill="white"/>
<path d="M66.0258 15.0034C65.355 15.1625 64.7286 15.1424 64.1466 14.9431C63.5678 14.7432 63.0684 14.3898 62.6485 13.883C62.2318 13.3755 61.9325 12.7379 61.7505 11.9704C61.567 11.1964 61.5471 10.4875 61.6908 9.84371C61.8378 9.19915 62.1249 8.6576 62.5523 8.21904C62.9829 7.77972 63.5337 7.48054 64.2045 7.3215C64.8753 7.16246 65.5 7.18293 66.0788 7.38293C66.6609 7.58215 67.1606 7.93714 67.578 8.4479C67.9987 8.95788 68.3008 9.59987 68.4843 10.3739C68.6663 11.1414 68.6834 11.8459 68.5357 12.4872C68.3913 13.1278 68.1037 13.6677 67.6731 14.107C67.2457 14.5456 66.6966 14.8444 66.0258 15.0034ZM65.7826 13.9779C66.2922 13.8571 66.6805 13.6271 66.9475 13.2878C67.2145 12.9486 67.3765 12.5474 67.4336 12.0843C67.4907 11.6211 67.4604 11.1412 67.3427 10.6445C67.2249 10.1479 67.0362 9.70385 66.7765 9.31239C66.5167 8.92093 66.191 8.63197 65.7994 8.44552C65.4078 8.25906 64.9572 8.22624 64.4476 8.34705C63.9381 8.46786 63.5502 8.69948 63.2839 9.04192C63.0177 9.38436 62.8564 9.78878 62.8 10.2552C62.7437 10.7216 62.7744 11.2031 62.8922 11.6997C63.0099 12.1964 63.1983 12.6388 63.4572 13.027C63.7162 13.4153 64.0411 13.701 64.432 13.8842C64.8229 14.0675 65.2731 14.0987 65.7826 13.9779Z" fill="white"/>
<path d="M80.8919 9.32049L80.6756 4.81147L81.8475 4.75525L82.2134 12.3828L81.0414 12.4391L80.9795 11.1479L80.9001 11.1517C80.7399 11.5477 80.4776 11.8904 80.1132 12.18C79.7487 12.4662 79.2784 12.6232 78.7023 12.6508C78.2256 12.6737 77.7968 12.5897 77.416 12.3989C77.0351 12.2048 76.7285 11.901 76.4963 11.4874C76.264 11.0705 76.1322 10.5376 76.1011 9.88874L75.8686 5.04204L77.0406 4.98582L77.2692 9.75307C77.2959 10.3093 77.4728 10.7454 77.7999 11.0615C78.1302 11.3775 78.5388 11.5238 79.0254 11.5005C79.3167 11.4865 79.6095 11.3978 79.9036 11.2344C80.201 11.0708 80.445 10.8301 80.6355 10.5124C80.8293 10.1945 80.9147 9.79721 80.8919 9.32049Z" fill="white"/>
</svg>
