<svg width="250" height="42" viewBox="0 0 250 42" fill="none" xmlns="http://www.w3.org/2000/svg">
<path d="M38.5254 31.7888C34.8115 31.7888 31.7898 28.7671 31.7898 25.0498C31.7898 21.3326 34.8115 18.3109 38.5254 18.3109C42.2393 18.3109 45.261 21.3359 45.261 25.0498C45.261 28.7637 42.2393 31.7888 38.5254 31.7888ZM38.5254 12.1078C31.3872 12.1078 25.5801 17.9149 25.5801 25.0532C25.5801 32.1914 31.3872 37.9985 38.5254 37.9985C45.6637 37.9985 51.4674 32.1914 51.4674 25.0532C51.4674 17.9149 45.6603 12.1078 38.5254 12.1078Z" fill="#787878"/>
<path d="M114.226 12.6097C106.898 12.6097 101.031 18.9759 101.867 26.467C102.509 32.2308 107.188 36.8499 112.958 37.4256C115.507 37.6818 117.917 37.156 119.99 36.0678L118.22 32.5203C117.754 31.5852 116.705 31.1193 115.69 31.3556C115.168 31.4787 114.622 31.5353 114.06 31.522C110.665 31.4354 107.843 28.6201 107.753 25.229C107.654 21.575 110.595 18.5766 114.226 18.5766C117.857 18.5766 120.666 21.4485 120.699 24.9927V34.3041C120.699 36.0645 122.126 37.4922 123.887 37.4922H126.666V25.1425C126.666 25.1125 126.669 25.0826 126.669 25.0526C126.669 18.1939 121.088 12.6131 114.229 12.6131L114.226 12.6097Z" fill="#787878"/>
<path d="M152.686 12.613C150.037 12.5697 147.631 13.5981 145.857 15.2886C145.844 15.3019 145.824 15.3019 145.81 15.2886C144.073 13.6347 141.724 12.613 139.141 12.613C133.88 12.613 129.591 16.8361 129.471 22.0708V22.1673C129.471 22.2072 129.471 22.2472 129.471 22.2871V25.2689V37.4555C129.471 37.4755 129.487 37.4921 129.507 37.4921H135.398C135.418 37.4921 135.434 37.4755 135.434 37.4555V22.2272C135.467 20.0508 137.384 18.3269 139.621 18.6065C141.501 18.8428 142.852 20.5466 142.852 22.4435V37.4555C142.852 37.4755 142.869 37.4921 142.889 37.4921H148.779C148.799 37.4921 148.815 37.4755 148.815 37.4555V22.4435C148.815 20.54 150.18 18.8295 152.07 18.6065C154.32 18.3403 156.233 20.094 156.233 22.2871V34.304C156.233 36.0644 157.661 37.4921 159.421 37.4921H162.163C162.183 37.4921 162.2 37.4788 162.2 37.4588V22.57C162.2 17.2421 158.014 12.6995 152.689 12.613H152.686Z" fill="#787878"/>
<path d="M102.762 15.183C102.679 13.7886 100.915 12.5939 99.3011 12.6139C95.8967 12.6538 93.1313 13.579 91.0847 15.3627C88.1728 17.8985 87.6337 21.3961 87.5372 23.4561L87.5205 23.466V23.9985C87.5139 24.2647 87.5205 24.4944 87.5205 24.6774V35.027C87.5205 36.6677 88.8484 37.9955 90.489 37.9955H90.5156C92.1562 37.9955 93.484 36.6677 93.484 35.027V24.1117C93.504 22.8271 93.5639 21.0966 95.0548 19.5725C96.2528 18.3478 97.3011 18.1182 99.5474 18.1415C101.271 18.1614 102.865 16.9168 102.762 15.1797V15.183Z" fill="#787878"/>
<path d="M11.0335 12.6097H0.00171499V34.0944C0.00171499 34.0944 -0.164677 37.2459 2.78047 37.4888H11.0302C18.8174 37.4888 23.4697 32.8398 23.4697 25.0493C23.4697 17.2588 18.8174 12.6097 11.0302 12.6097H11.0335ZM11.0335 31.5253H5.96855V18.5766H11.0335C15.5128 18.5766 17.5095 20.5733 17.5095 25.0493C17.5095 29.5253 15.5128 31.5253 11.0335 31.5253Z" fill="#787878"/>
<path d="M84.8458 3.13609C84.4265 1.69845 83.102 0.646851 81.528 0.646851C79.6178 0.646851 78.0703 2.19431 78.0703 4.1045V12.5406C75.5378 10.8101 72.4862 9.78516 69.1916 9.78516C60.486 9.78516 53.4043 16.8668 53.4043 25.5692C53.4043 34.2716 60.486 41.3532 69.1916 41.3532C77.8973 41.3532 84.8125 34.428 84.969 25.8587C84.9823 25.7423 84.9889 25.6258 84.9889 25.5093V4.07455C84.9889 3.74842 84.939 3.4356 84.8425 3.13942L84.8458 3.13609ZM69.1916 35.1734C63.897 35.1734 59.5908 30.8672 59.5908 25.5725C59.5908 20.2779 63.897 15.9716 69.1916 15.9716C74.4862 15.9716 78.7925 20.2779 78.7925 25.5725C78.7925 30.8672 74.4862 35.1734 69.1916 35.1734Z" fill="#E83828"/>
<path d="M64.9151 28.0922C66.209 28.0922 67.2579 27.0433 67.2579 25.7494C67.2579 24.4555 66.209 23.4066 64.9151 23.4066C63.6212 23.4066 62.5723 24.4555 62.5723 25.7494C62.5723 27.0433 63.6212 28.0922 64.9151 28.0922Z" fill="#E83828"/>
<path d="M73.4795 28.0922C74.7734 28.0922 75.8223 27.0433 75.8223 25.7494C75.8223 24.4555 74.7734 23.4066 73.4795 23.4066C72.1856 23.4066 71.1367 24.4555 71.1367 25.7494C71.1367 27.0433 72.1856 28.0922 73.4795 28.0922Z" fill="#E83828"/>
<path d="M249.721 31.3495C249.205 30.9402 248.746 31.2264 248.237 31.7223C245.777 34.1117 242.413 34.6574 239.897 31.5692C242.227 28.3877 243.458 24.3976 243.252 20.4142C242.989 15.3026 240.443 12.4406 236.779 12.6303C232.952 12.8267 230.576 16.2444 230.882 22.1513C231.082 26.035 232.213 29.436 234.037 31.9386C233.607 32.6574 231.717 33.5859 229.78 33.5859C227.844 33.5859 226.443 33.1832 225.208 31.7156C227.697 28.6606 229.132 24.7371 229.132 20.7503C229.132 15.6321 226.739 12.6436 223.068 12.6436C219.398 12.6436 216.685 15.9316 216.685 21.8485C216.685 25.7388 217.644 29.1931 219.334 31.7855C218.809 32.1948 217.667 33.5959 216.123 33.5859C215.041 33.5792 213.757 32.9403 213.757 31.3495V21.6954C213.757 20.5506 212.828 19.6222 211.684 19.6222C210.539 19.6222 209.61 20.5506 209.61 21.6954V22.0116C208.302 20.514 206.482 19.6188 204.316 19.6188C199.783 19.6188 196.369 23.4392 196.369 28.4909C196.369 30.1948 196.758 31.7589 197.447 33.0834C196.881 33.3629 196.169 33.5859 195.324 33.5859C194.319 33.5859 193.181 32.8304 193.181 31.293V25.9318C193.181 22.1081 190.994 19.6155 187.417 19.6155C185.024 19.6155 183.317 20.6471 182.039 22.5407C181.051 20.7137 179.407 19.6155 177.077 19.6155C175.097 19.6155 173.676 20.3443 172.465 21.7753V21.6921C172.465 20.5473 171.536 19.6188 170.392 19.6188C169.247 19.6188 168.318 20.5473 168.318 21.6921V35.3896C168.318 36.5344 169.247 37.4628 170.392 37.4628C171.536 37.4628 172.465 36.5344 172.465 35.3896V27.2929C172.465 25.1997 173.663 23.8053 175.706 23.8053C177.62 23.8053 178.691 25.1664 178.691 27.2263V35.3896C178.691 36.5344 179.62 37.4628 180.765 37.4628C181.909 37.4628 182.838 36.5344 182.838 35.3896V27.2929C182.838 25.1997 184.003 23.8053 186.046 23.8053C188.089 23.8053 189.034 25.1664 189.034 27.2263V32.4744C189.034 35.0967 190.865 37.4928 194.968 37.4928C197.434 37.4928 199.141 36.6908 200.083 36.0784C201.294 36.8971 202.738 37.363 204.319 37.363C206.678 37.363 208.659 36.2681 209.966 34.5077C211.065 36.8438 213.577 37.4928 215.561 37.4928C218.06 37.4928 219.654 36.6641 222.023 34.7739C227.248 39.0902 232.533 36.967 232.533 36.967C233.997 36.4345 235.714 35.7456 236.875 34.7872C239.558 36.6708 244.859 39.4362 249.039 33.9819C250.247 32.4045 250.11 31.6491 249.734 31.3495H249.721ZM205.101 33.1765C202.549 33.1765 200.632 31.1499 200.632 28.4909C200.632 25.832 202.549 23.8053 205.101 23.8053C207.654 23.8053 209.6 25.832 209.6 28.4909C209.6 31.1499 207.683 33.1765 205.101 33.1765ZM222.453 28.4576C221.494 26.5641 220.955 24.1713 220.955 21.5457C220.955 18.321 221.754 16.8268 222.998 16.8268C224.146 16.8268 224.845 18.1879 224.845 20.7503C224.845 23.5424 223.983 26.198 222.453 28.461V28.4576ZM238.842 21.6488C238.702 24.2712 238.037 26.624 236.982 28.4576C235.571 26.1082 234.849 23.3993 234.995 20.6139C235.128 18.0581 235.904 16.7436 237.052 16.8134C238.296 16.89 239.012 18.4308 238.842 21.6488Z" fill="#E83828"/>
</svg>
