<svg width="220" height="38" viewBox="0 0 220 38" fill="none" xmlns="http://www.w3.org/2000/svg">
<path d="M33.9007 29.0715C30.6325 29.0715 27.9734 26.2507 27.9734 22.7806C27.9734 19.3105 30.6325 16.4897 33.9007 16.4897C37.169 16.4897 39.8281 19.3136 39.8281 22.7806C39.8281 26.2476 37.169 29.0715 33.9007 29.0715ZM33.9007 10.699C27.6191 10.699 22.5088 16.12 22.5088 22.7837C22.5088 29.4474 27.6191 34.8684 33.9007 34.8684C40.1824 34.8684 45.2898 29.4474 45.2898 22.7837C45.2898 16.12 40.1795 10.699 33.9007 10.699Z" fill="#787878"/>
<path d="M100.52 11.1675C94.071 11.1675 88.908 17.1104 89.6431 24.1034C90.2083 29.4841 94.3258 33.796 99.4039 34.3335C101.647 34.5727 103.767 34.0818 105.592 33.066L104.034 29.7543C103.624 28.8814 102.701 28.4465 101.808 28.667C101.348 28.782 100.868 28.8348 100.373 28.8224C97.3861 28.7416 94.9027 26.1134 94.8237 22.9478C94.7358 19.5367 97.3246 16.7376 100.52 16.7376C103.715 16.7376 106.186 19.4186 106.216 22.7272V31.4195C106.216 33.0629 107.472 34.3956 109.021 34.3956H111.466V22.867C111.466 22.839 111.469 22.8111 111.469 22.7831C111.469 16.3804 106.558 11.1706 100.523 11.1706L100.52 11.1675Z" fill="#787878"/>
<path d="M134.364 11.1707C132.033 11.1303 129.916 12.0902 128.355 13.6684C128.343 13.6808 128.325 13.6808 128.314 13.6684C126.785 12.1244 124.717 11.1707 122.445 11.1707C117.815 11.1707 114.04 15.1129 113.935 19.9996V20.0897C113.935 20.127 113.935 20.1643 113.935 20.2016V22.9851V34.3615C113.935 34.3801 113.949 34.3957 113.967 34.3957H119.15C119.168 34.3957 119.182 34.3801 119.182 34.3615V20.1457C119.212 18.1139 120.899 16.5047 122.867 16.7657C124.521 16.9862 125.71 18.5768 125.71 20.3476V34.3615C125.71 34.3801 125.725 34.3957 125.742 34.3957H130.926C130.943 34.3957 130.958 34.3801 130.958 34.3615V20.3476C130.958 18.5706 132.159 16.9738 133.822 16.7657C135.802 16.5171 137.486 18.1543 137.486 20.2016V31.4195C137.486 33.0629 138.742 34.3957 140.291 34.3957H142.704C142.722 34.3957 142.737 34.3833 142.737 34.3646V20.4656C142.737 15.492 139.053 11.2514 134.367 11.1707H134.364Z" fill="#787878"/>
<path d="M90.4309 13.5697C90.3577 12.268 88.8055 11.1527 87.3852 11.1714C84.3893 11.2087 81.9557 12.0723 80.1547 13.7374C77.5922 16.1047 77.1178 19.3697 77.0329 21.2927L77.0182 21.302V21.7991C77.0124 22.0476 77.0182 22.262 77.0182 22.4328V32.0944C77.0182 33.626 78.1867 34.8655 79.6305 34.8655H79.6539C81.0977 34.8655 82.2661 33.626 82.2661 32.0944V21.9047C82.2837 20.7056 82.3364 19.0901 83.6484 17.6673C84.7027 16.5241 85.6252 16.3097 87.6019 16.3315C89.1189 16.3501 90.5217 15.1882 90.4309 13.5666V13.5697Z" fill="#787878"/>
<path d="M9.70859 11.1675H0.000532635V31.2238C0.000532635 31.2238 -0.145893 34.1657 2.44585 34.3925H9.70566C16.5584 34.3925 20.6525 30.0526 20.6525 22.78C20.6525 15.5074 16.5584 11.1675 9.70566 11.1675H9.70859ZM9.70859 28.8255H5.25138V16.7376H9.70859C13.6504 16.7376 15.4075 18.6016 15.4075 22.78C15.4075 26.9584 13.6504 28.8255 9.70859 28.8255Z" fill="#787878"/>
<path d="M74.6638 2.32375C74.2948 0.981689 73.1293 0 71.7441 0C70.0631 0 68.7013 1.44457 68.7013 3.22777V11.103C66.4727 9.48759 63.7873 8.53075 60.888 8.53075C53.227 8.53075 46.9951 15.1416 46.9951 23.2654C46.9951 31.3892 53.227 38.0001 60.888 38.0001C68.549 38.0001 74.6345 31.5352 74.7722 23.5357C74.7839 23.427 74.7897 23.3182 74.7897 23.2095V3.19981C74.7897 2.89536 74.7458 2.60334 74.6609 2.32685L74.6638 2.32375ZM60.888 32.2311C56.2288 32.2311 52.4392 28.2111 52.4392 23.2685C52.4392 18.3259 56.2288 14.3059 60.888 14.3059C65.5473 14.3059 69.3368 18.3259 69.3368 23.2685C69.3368 28.2111 65.5473 32.2311 60.888 32.2311Z" fill="#E83828"/>
<path d="M57.1232 25.6208C58.2618 25.6208 59.1849 24.6416 59.1849 23.4338C59.1849 22.2259 58.2618 21.2467 57.1232 21.2467C55.9846 21.2467 55.0615 22.2259 55.0615 23.4338C55.0615 24.6416 55.9846 25.6208 57.1232 25.6208Z" fill="#E83828"/>
<path d="M64.6593 25.6208C65.798 25.6208 66.721 24.6416 66.721 23.4338C66.721 22.2259 65.798 21.2467 64.6593 21.2467C63.5207 21.2467 62.5977 22.2259 62.5977 23.4338C62.5977 24.6416 63.5207 25.6208 64.6593 25.6208Z" fill="#E83828"/>
<path d="M219.754 28.6614C219.3 28.2793 218.896 28.5465 218.448 29.0094C216.283 31.2399 213.323 31.7494 211.109 28.8665C213.159 25.8965 214.242 22.1717 214.061 18.4531C213.829 13.6814 211.589 11.0097 208.365 11.1867C204.997 11.37 202.906 14.5605 203.175 20.0748C203.351 23.7002 204.347 26.8751 205.952 29.2113C205.574 29.8823 203.91 30.7491 202.206 30.7491C200.502 30.7491 199.269 30.3732 198.182 29.0032C200.373 26.1513 201.635 22.4886 201.635 18.7669C201.635 13.9889 199.529 11.1992 196.299 11.1992C193.069 11.1992 190.682 14.2685 190.682 19.7921C190.682 23.4237 191.526 26.6483 193.013 29.0684C192.551 29.4505 191.546 30.7584 190.187 30.7491C189.236 30.7429 188.105 30.1464 188.105 28.6614V19.6492C188.105 18.5805 187.288 17.7137 186.281 17.7137C185.273 17.7137 184.456 18.5805 184.456 19.6492V19.9443C183.305 18.5463 181.703 17.7106 179.797 17.7106C175.808 17.7106 172.804 21.277 172.804 25.9929C172.804 27.5834 173.146 29.0435 173.753 30.28C173.255 30.5409 172.628 30.7491 171.884 30.7491C171 30.7491 169.998 30.0439 169.998 28.6086V23.6039C169.998 20.0344 168.074 17.7075 164.926 17.7075C162.82 17.7075 161.318 18.6706 160.193 20.4382C159.324 18.7327 157.877 17.7075 155.827 17.7075C154.085 17.7075 152.834 18.3879 151.768 19.7237V19.646C151.768 18.5774 150.951 17.7106 149.944 17.7106C148.936 17.7106 148.119 18.5774 148.119 19.646V32.4329C148.119 33.5015 148.936 34.3683 149.944 34.3683C150.951 34.3683 151.768 33.5015 151.768 32.4329V24.8745C151.768 22.9204 152.822 21.6187 154.62 21.6187C156.304 21.6187 157.247 22.8893 157.247 24.8123V32.4329C157.247 33.5015 158.064 34.3683 159.072 34.3683C160.079 34.3683 160.896 33.5015 160.896 32.4329V24.8745C160.896 22.9204 161.921 21.6187 163.719 21.6187C165.517 21.6187 166.349 22.8893 166.349 24.8123V29.7115C166.349 32.1595 167.96 34.3962 171.571 34.3962C173.741 34.3962 175.243 33.6475 176.072 33.0759C177.138 33.8402 178.409 34.2751 179.8 34.2751C181.876 34.2751 183.619 33.253 184.77 31.6096C185.736 33.7904 187.947 34.3962 189.692 34.3962C191.892 34.3962 193.295 33.6227 195.38 31.8581C199.977 35.8874 204.628 33.9054 204.628 33.9054C205.916 33.4083 207.428 32.7653 208.45 31.8706C210.81 33.6289 215.475 36.2105 219.153 31.1188C220.216 29.6462 220.096 28.941 219.765 28.6614H219.754ZM180.488 30.367C178.242 30.367 176.555 28.475 176.555 25.9929C176.555 23.5107 178.242 21.6187 180.488 21.6187C182.734 21.6187 184.447 23.5107 184.447 25.9929C184.447 28.475 182.761 30.367 180.488 30.367ZM195.757 25.9618C194.914 24.1941 194.44 21.9605 194.44 19.5094C194.44 16.4991 195.142 15.1042 196.238 15.1042C197.248 15.1042 197.863 16.3748 197.863 18.7669C197.863 21.3733 197.105 23.8524 195.757 25.9649V25.9618ZM210.18 19.6057C210.057 22.0537 209.472 24.25 208.543 25.9618C207.302 23.7685 206.666 21.2397 206.795 18.6395C206.912 16.2536 207.595 15.0265 208.605 15.0918C209.7 15.1632 210.33 16.6016 210.18 19.6057Z" fill="#E83828"/>
</svg>
