<svg width="1520" height="260" viewBox="0 0 1520 260" fill="none" xmlns="http://www.w3.org/2000/svg">
<rect width="1520" height="260" rx="20" fill="#E5EEFF"/>
<path d="M303.975 99.0332V116.26H286.215V99.0332H303.975ZM291.383 103.176V112.117H298.807V103.176H291.383ZM314.721 96.4492V105.76H319.766V110.107H314.721V121.1H309.471V96.4492H314.721ZM305.328 120.279C305.328 124.422 309.266 128.482 317.223 129.508L315.172 133.609C309.327 132.707 305.062 130.185 302.785 126.678C300.509 130.185 296.243 132.707 290.357 133.609L288.348 129.508C296.223 128.482 300.16 124.422 300.16 120.279V119.336H305.328V120.279ZM333.302 120.402C333.302 123.417 334.553 126.514 337.609 128.564C340.685 126.391 342.039 123.171 342.039 120.402V119.131H347.207V120.402C347.166 124.299 349.257 127.908 354.22 129.426L351.677 133.24C348.109 132.03 345.771 129.754 344.5 126.883C343.249 129.754 341.075 132.256 337.732 133.568C334.205 132.297 332.01 129.877 330.8 127.006C329.488 129.795 327.191 132.051 323.787 133.24L321.203 129.426C326.125 127.744 328.175 124.053 328.216 120.402V119.131H333.302V120.402ZM350.98 96.4902V117.572H345.73V96.4902H350.98ZM330.513 98.377C336.338 98.377 340.726 102.068 340.726 107.359C340.726 112.568 336.338 116.26 330.513 116.26C324.689 116.26 320.3 112.568 320.3 107.359C320.3 102.068 324.689 98.377 330.513 98.377ZM330.513 102.766C327.519 102.766 325.386 104.488 325.427 107.359C325.386 110.189 327.519 111.912 330.513 111.912C333.425 111.912 335.558 110.189 335.558 107.359C335.558 104.488 333.425 102.766 330.513 102.766ZM384.656 106.621V110.723H358.57V97.7617H363.779V106.621H384.656ZM388.47 114.742V118.844H354.304V114.742H388.47ZM384.902 128.77V132.953H358.242V121.879H363.492V128.77H384.902ZM431.007 115.686V119.869H396.964V115.686H411.319V112.691C404.592 112.138 400.368 109.349 400.368 105.021C400.368 100.346 405.741 97.3926 413.985 97.3926C422.147 97.3926 427.52 100.346 427.561 105.021C427.52 109.369 423.255 112.158 416.569 112.691V115.686H431.007ZM427.151 128.934V133.117H401.065V122.207H406.315V128.934H427.151ZM413.985 101.535C408.817 101.535 405.782 102.807 405.823 105.021C405.782 107.441 408.817 108.59 413.985 108.59C419.153 108.59 422.147 107.441 422.147 105.021C422.147 102.807 419.153 101.535 413.985 101.535ZM462.016 113.143V117.285H451.188V125.242H465.748V129.508H431.582V125.242H445.979V117.285H435.602V99.0742H461.729V103.258H440.852V113.143H462.016ZM481.051 98.3359V103.135H488.392V98.3359H493.56V104.98H500.451V96.4492H505.66V116.875H500.451V109.246H493.56V115.809H475.801V98.3359H481.051ZM481.051 111.625H488.392V107.154H481.051V111.625ZM485.931 118.434V121.879H500.451V118.434H505.66V133.281H480.763V118.434H485.931ZM485.931 129.098H500.451V125.898H485.931V129.098ZM523.339 104.693C523.298 108.672 526.21 112.773 532.322 114.373L529.902 118.434C525.554 117.285 522.519 114.845 520.796 111.748C519.115 115.173 516.059 117.839 511.609 119.09L509.148 115.029C515.3 113.225 518.048 108.959 518.048 104.693V104.488H510.419V100.387H518.048V96.2852H523.38V100.387H530.968V104.488H523.339V104.693ZM540.074 96.4492V119.295H534.824V96.4492H540.074ZM540.074 120.895V133.773H534.824V125.119H514.398V120.895H540.074Z" fill="#030B39"/>
<path d="M298.824 161.227V162.711H293.531V166.988H300.66V168.512H284.645V166.988H291.695V162.711H286.637V154.508H298.668V156.012H288.492V161.227H298.824ZM315.309 161.461V162.984H303.122V154.723H315.153V156.246H304.958V161.461H315.309ZM317.145 166.812V168.355H301.13V166.812H317.145ZM331.365 153.18V157.535H333.923V159.098H331.365V163.59H329.509V153.18H331.365ZM331.365 164.41V170.445H320.154V164.41H331.365ZM321.97 165.855V168.941H329.568V165.855H321.97ZM326.287 154.098V159.039H320.193V161.227C323.23 161.217 325.379 161.129 327.927 160.699L328.123 162.184C325.408 162.672 323.103 162.77 319.744 162.77H318.338V157.633H324.47V155.582H318.318V154.098H326.287ZM342.967 154.703V162.867H334.784V154.703H342.967ZM336.6 156.207V161.402H341.151V156.207H336.6ZM347.85 153.141V158.375H350.389V159.938H347.85V165.973H345.995V153.141H347.85ZM348.592 168.785V170.289H336.756V164.742H338.612V168.785H348.592ZM356.288 154.41C359.062 154.391 361.034 156.109 361.054 158.57C361.034 161.031 359.062 162.75 356.288 162.75C353.534 162.75 351.503 161.031 351.523 158.57C351.503 156.109 353.534 154.391 356.288 154.41ZM356.288 156.012C354.589 156.012 353.339 157.027 353.359 158.57C353.339 160.113 354.589 161.129 356.288 161.129C357.988 161.129 359.238 160.113 359.238 158.57C359.238 157.027 357.988 156.012 356.288 156.012ZM365.058 153.16V170.699H363.202V153.16H365.058ZM350.683 165.387C353.866 165.387 358.28 165.348 362.109 164.801L362.245 166.148C358.28 166.91 354.042 166.93 350.917 166.93L350.683 165.387ZM513.058 157.613C513.038 160.816 514.972 164.02 517.687 165.23L516.573 166.695C514.562 165.738 512.97 163.775 512.159 161.383C511.339 163.941 509.728 166.061 507.628 167.086L506.495 165.523C509.249 164.293 511.183 160.953 511.183 157.613V154.625H513.058V157.613ZM521.124 153.16V170.699H519.269V153.16H521.124ZM532.004 155.641C532.004 158.492 535.051 161.188 538.41 161.793L537.551 163.336C534.758 162.73 532.18 160.895 531.047 158.434C529.895 160.875 527.326 162.711 524.523 163.336L523.703 161.793C527.023 161.168 530.051 158.492 530.051 155.641V154.312H532.004V155.641ZM539.133 166.812V168.355H523.117V166.812H539.133ZM547.044 154.273V155.797H542.161V157.691H546.36V159.137H542.161V161.227C544.466 161.207 545.999 161.119 547.786 160.797L547.962 162.262C545.95 162.633 544.29 162.711 541.516 162.711H540.384V154.273H547.044ZM554.524 153.16V163.668H552.766V153.16H554.524ZM551.087 153.453V163.531H549.329V159H547.161V157.496H549.329V153.453H551.087ZM554.524 164.449V170.445H542.825V164.449H554.524ZM544.68 165.914V168.941H552.708V165.914H544.68Z" fill="#030B39" fill-opacity="0.8"/>
<path d="M381.213 154.859V169H379.045V157.008H378.966L375.588 159.215V157.164L379.103 154.859H381.213ZM388.811 169.195C386.135 169.195 384.123 167.555 384.026 165.309H386.116C386.233 166.52 387.385 167.398 388.811 167.398C390.53 167.398 391.76 166.148 391.76 164.469C391.76 162.75 390.491 161.5 388.713 161.48C387.58 161.48 386.721 161.852 386.233 162.73H384.202L385.12 154.859H393.127V156.695H386.897L386.428 160.66H386.565C387.151 160.094 388.147 159.703 389.221 159.703C391.877 159.703 393.85 161.676 393.85 164.41C393.85 167.203 391.76 169.195 388.811 169.195ZM401.605 161.031V162.828H395.335V161.031H401.605ZM402.738 169V167.438L407.641 162.496C409.184 160.875 409.965 159.977 409.965 158.746C409.965 157.359 408.832 156.461 407.348 156.461C405.785 156.461 404.77 157.457 404.77 158.961H402.738C402.719 156.383 404.691 154.664 407.387 154.664C410.121 154.664 411.996 156.383 412.016 158.688C411.996 160.27 411.254 161.52 408.598 164.137L405.727 167.047V167.164H412.25V169H402.738ZM420.102 161.031V162.828H413.833V161.031H420.102ZM426.607 169.195C423.931 169.195 421.92 167.555 421.822 165.309H423.912C424.029 166.52 425.181 167.398 426.607 167.398C428.326 167.398 429.556 166.148 429.556 164.469C429.556 162.75 428.287 161.5 426.509 161.48C425.377 161.48 424.517 161.852 424.029 162.73H421.998L422.916 154.859H430.923V156.695H424.693L424.224 160.66H424.361C424.947 160.094 425.943 159.703 427.017 159.703C429.673 159.703 431.646 161.676 431.646 164.41C431.646 167.203 429.556 169.195 426.607 169.195ZM450.632 153.629V154.742C450.632 155.992 450.632 157.594 450.241 159.723L448.405 159.605C448.542 158.883 448.63 158.219 448.698 157.613L438.269 158.121L438.034 156.637L448.777 156.344C448.786 155.885 448.796 155.475 448.796 155.094H438.484V153.629H450.632ZM452.546 160.641V162.105H436.628V160.641H442.937V158.668H444.812V160.641H452.546ZM450.554 163.395V167.555H440.359V168.961H451.042V170.387H438.542V166.207H448.718V164.82H438.523V163.395H450.554ZM467.273 161.461V162.984H455.086V154.723H467.117V156.246H456.922V161.461H467.273ZM469.109 166.812V168.355H453.094V166.812H469.109ZM474.813 158.531C474.813 161.285 476.083 164.098 478.505 165.387L477.47 166.754C475.78 165.855 474.598 164.176 473.973 162.184C473.339 164.322 472.167 166.158 470.477 167.164L469.384 165.758C471.805 164.352 473.055 161.363 473.075 158.531V157.828H469.911V156.305H473.075V153.785H474.813V156.305H477.919V157.828H474.813V158.531ZM484.598 153.16V170.66H482.821V153.16H484.598ZM481.044 153.531V169.781H479.286V161.52H476.766V159.977H479.286V153.531H481.044ZM500.576 153.18V165.895H498.72V153.18H500.576ZM501.103 168.785V170.289H489.13V164.605H491.005V168.785H501.103ZM491.084 154.352C493.72 154.352 495.732 156.148 495.732 158.688C495.732 161.266 493.72 163.043 491.084 163.043C488.447 163.043 486.416 161.266 486.416 158.688C486.416 156.148 488.447 154.352 491.084 154.352ZM491.084 155.973C489.443 155.973 488.232 157.086 488.232 158.688C488.232 160.328 489.443 161.422 491.084 161.422C492.685 161.422 493.916 160.328 493.916 158.688C493.916 157.086 492.685 155.973 491.084 155.973Z" fill="#0258F5"/>
<rect x="661" y="50" width="120" height="120" rx="60" fill="white"/>
<path opacity="0.9" d="M706 88.1625C706 85.8636 707.889 84 710.219 84H725.219C727.549 84 729.438 85.8636 729.438 88.1625V97.875H731.781C734.111 97.875 736 99.7387 736 102.038V119.613C736 120.379 735.37 121 734.594 121H729.438V114.063C729.438 112.785 728.388 111.75 727.094 111.75H714.906C713.612 111.75 712.563 112.785 712.563 114.063V121H707.406C706.63 121 706 120.379 706 119.613V88.1625ZM726.625 114.525V121H722.406V114.525H726.625ZM719.594 114.525V121H715.375V114.525H719.594ZM712.563 92.325C712.563 93.3467 713.402 94.175 714.438 94.175C715.473 94.175 716.312 93.3467 716.312 92.325C716.312 91.3033 715.473 90.475 714.438 90.475C713.402 90.475 712.563 91.3033 712.563 92.325ZM714.438 103.425C713.402 103.425 712.563 104.253 712.563 105.275C712.563 106.297 713.402 107.125 714.438 107.125C715.473 107.125 716.312 106.297 716.312 105.275C716.312 104.253 715.473 103.425 714.438 103.425ZM714.438 96.95C713.402 96.95 712.563 97.7783 712.563 98.8C712.563 99.8218 713.402 100.65 714.438 100.65C715.473 100.65 716.312 99.8218 716.312 98.8C716.312 97.7783 715.473 96.95 714.438 96.95ZM721 90.475C719.964 90.475 719.125 91.3033 719.125 92.325C719.125 93.3467 719.964 94.175 721 94.175C722.036 94.175 722.875 93.3467 722.875 92.325C722.875 91.3033 722.036 90.475 721 90.475ZM721 103.425C719.964 103.425 719.125 104.253 719.125 105.275C719.125 106.297 719.964 107.125 721 107.125C722.036 107.125 722.875 106.297 722.875 105.275C722.875 104.253 722.036 103.425 721 103.425ZM727.562 103.425C726.527 103.425 725.688 104.253 725.688 105.275C725.688 106.297 726.527 107.125 727.562 107.125C728.598 107.125 729.438 106.297 729.438 105.275C729.438 104.253 728.598 103.425 727.562 103.425ZM721 96.95C719.964 96.95 719.125 97.7783 719.125 98.8C719.125 99.8218 719.964 100.65 721 100.65C722.036 100.65 722.875 99.8218 722.875 98.8C722.875 97.7783 722.036 96.95 721 96.95Z" fill="#3B7EFF"/>
<path opacity="0.8" d="M695.037 134.688V146H692.99V136.672H692.928L690.287 138.359V136.5L693.084 134.688H695.037ZM701.163 146.156C698.897 146.156 697.241 144.812 697.178 142.938H699.163C699.225 143.859 700.085 144.516 701.163 144.516C702.428 144.516 703.335 143.594 703.335 142.344C703.335 141.047 702.397 140.125 701.1 140.125C700.225 140.109 699.585 140.422 699.225 141.094H697.335L698.022 134.688H704.71V136.391H699.694L699.35 139.391H699.46C699.897 138.891 700.725 138.531 701.647 138.531C703.757 138.531 705.303 140.109 705.303 142.281C705.303 144.547 703.6 146.156 701.163 146.156ZM708.929 139.906C707.46 139.906 706.273 138.719 706.273 137.266C706.273 135.797 707.46 134.609 708.929 134.609C710.398 134.609 711.585 135.797 711.585 137.266C711.585 138.719 710.398 139.906 708.929 139.906ZM708.929 138.516C709.617 138.516 710.179 137.953 710.179 137.266C710.179 136.562 709.617 136.016 708.929 136.016C708.242 136.016 707.679 136.562 707.679 137.266C707.679 137.953 708.242 138.516 708.929 138.516ZM720.211 138.5C719.977 137.141 718.883 136.359 717.508 136.359C715.648 136.359 714.352 137.781 714.352 140.344C714.352 142.938 715.664 144.328 717.508 144.328C718.852 144.328 719.945 143.578 720.211 142.25H722.258C721.945 144.422 720.164 146.156 717.477 146.156C714.492 146.156 712.305 143.984 712.305 140.344C712.305 136.688 714.523 134.531 717.477 134.531C719.977 134.531 721.914 135.984 722.258 138.5H720.211ZM737.697 133.266V147.406H735.947V133.266H737.697ZM730.087 134.297C732.212 134.297 733.759 136.234 733.775 139.281C733.759 142.359 732.212 144.281 730.087 144.281C727.947 144.281 726.4 142.359 726.4 139.281C726.4 136.234 727.947 134.297 730.087 134.297ZM730.087 135.859C728.884 135.859 728.072 137.125 728.072 139.281C728.072 141.453 728.884 142.719 730.087 142.719C731.275 142.719 732.087 141.453 732.087 139.281C732.087 137.125 731.275 135.859 730.087 135.859ZM750.197 133.266V138.891H752.369V140.328H750.197V147.391H748.478V133.266H750.197ZM747.385 135.438V136.828H739.057V135.438H742.4V133.469H744.135V135.438H747.385ZM743.275 137.75C745.307 137.75 746.822 139.125 746.822 141.078C746.822 143.031 745.307 144.391 743.275 144.391C741.213 144.391 739.697 143.031 739.713 141.078C739.697 139.125 741.213 137.75 743.275 137.75ZM743.275 139.172C742.166 139.172 741.369 139.922 741.369 141.078C741.369 142.234 742.166 142.969 743.275 142.953C744.353 142.969 745.15 142.234 745.166 141.078C745.15 139.922 744.353 139.172 743.275 139.172Z" fill="#0258F5"/>
<rect x="661" y="184" width="120" height="27" rx="8" fill="#030B39"/>
<path d="M709.512 202V192.102H711.016V200.701H715.486V202H709.512ZM716.471 202V192.102H719.999C722.295 192.102 723.43 193.482 723.43 195.314C723.43 197.133 722.295 198.527 719.999 198.527H717.975V202H716.471ZM717.975 197.242H719.848C721.311 197.242 721.913 196.422 721.913 195.314C721.913 194.193 721.311 193.387 719.848 193.387H717.975V197.242ZM731.155 195.328C730.909 194.057 729.857 193.346 728.599 193.346C726.89 193.346 725.618 194.658 725.618 197.051C725.618 199.457 726.903 200.756 728.599 200.756C729.843 200.756 730.896 200.059 731.155 198.801L732.673 198.814C732.359 200.77 730.759 202.137 728.585 202.137C726.001 202.137 724.128 200.209 724.128 197.051C724.128 193.879 726.015 191.965 728.585 191.965C730.677 191.965 732.331 193.195 732.673 195.328H731.155Z" fill="white"/>
<path d="M790 197.5H797.5" stroke="#030B39" stroke-width="1.5" stroke-linecap="round" stroke-linejoin="round" stroke-dasharray="1 3"/>
<path d="M804.241 196.999C804.6 197.236 804.6 197.764 804.241 198.001L800.68 200.35C800.282 200.613 799.75 200.327 799.75 199.849V195.151C799.75 194.673 800.282 194.387 800.68 194.65L804.241 196.999Z" fill="#030B39"/>
<rect x="813" y="50" width="120" height="120" rx="60" fill="white"/>
<path opacity="0.9" d="M866.506 86.0152C865.189 84.6616 863.015 84.6616 861.698 86.0152L857.222 90.6165C856.438 91.4216 856 92.5005 856 93.6238V116.146C856 117.998 857.502 119.5 859.354 119.5H865.583V111.354C865.583 110.56 866.227 109.917 867.021 109.917H871.812V93.2208C871.812 92.0976 871.374 91.0187 870.591 90.2136L866.506 86.0152ZM874.688 93.2208V109.917H879.479C880.273 109.917 880.917 110.56 880.917 111.354V119.5H887.146C888.998 119.5 890.5 117.998 890.5 116.146V93.6238C890.5 92.5005 890.062 91.4216 889.279 90.6165L884.802 86.0152C883.485 84.6616 881.311 84.6616 879.994 86.0152L875.909 90.2136C875.126 91.0187 874.688 92.0976 874.688 93.2208ZM874.688 112.792V119.5H878.042V112.792H874.688ZM871.812 119.5V112.792H868.458V119.5H871.812ZM865.823 96.5C865.823 97.5585 864.965 98.4167 863.906 98.4167C862.848 98.4167 861.99 97.5585 861.99 96.5C861.99 95.4415 862.848 94.5833 863.906 94.5833C864.965 94.5833 865.823 95.4415 865.823 96.5ZM882.594 98.4167C881.535 98.4167 880.677 97.5585 880.677 96.5C880.677 95.4415 881.535 94.5833 882.594 94.5833C883.652 94.5833 884.51 95.4415 884.51 96.5C884.51 97.5585 883.652 98.4167 882.594 98.4167ZM865.823 104.16C865.823 105.219 864.965 106.077 863.906 106.077C862.848 106.077 861.99 105.219 861.99 104.16C861.99 103.102 862.848 102.243 863.906 102.243C864.965 102.243 865.823 103.102 865.823 104.16ZM882.594 106.077C881.535 106.077 880.677 105.219 880.677 104.16C880.677 103.102 881.535 102.243 882.594 102.243C883.652 102.243 884.51 103.102 884.51 104.16C884.51 105.219 883.652 106.077 882.594 106.077Z" fill="#3B7EFF"/>
<path opacity="0.8" d="M845.438 146V144.531L849.438 140.672C850.578 139.531 851.172 138.859 851.172 137.906C851.172 136.859 850.344 136.188 849.234 136.188C848.062 136.188 847.312 136.922 847.328 138.062H845.391C845.375 135.922 846.984 134.531 849.25 134.531C851.562 134.531 853.125 135.906 853.125 137.812C853.125 139.094 852.5 140.125 850.281 142.219L848.266 144.219V144.297H853.297V146H845.438ZM856.985 139.906C855.516 139.906 854.329 138.719 854.329 137.266C854.329 135.797 855.516 134.609 856.985 134.609C858.454 134.609 859.641 135.797 859.641 137.266C859.641 138.719 858.454 139.906 856.985 139.906ZM856.985 138.516C857.672 138.516 858.235 137.953 858.235 137.266C858.235 136.562 857.672 136.016 856.985 136.016C856.297 136.016 855.735 136.562 855.735 137.266C855.735 137.953 856.297 138.516 856.985 138.516ZM868.267 138.5C868.033 137.141 866.939 136.359 865.564 136.359C863.704 136.359 862.408 137.781 862.408 140.344C862.408 142.938 863.72 144.328 865.564 144.328C866.908 144.328 868.001 143.578 868.267 142.25H870.314C870.001 144.422 868.22 146.156 865.533 146.156C862.548 146.156 860.361 143.984 860.361 140.344C860.361 136.688 862.579 134.531 865.533 134.531C868.033 134.531 869.97 135.984 870.314 138.5H868.267ZM885.753 133.266V147.406H884.003V133.266H885.753ZM878.143 134.297C880.268 134.297 881.815 136.234 881.831 139.281C881.815 142.359 880.268 144.281 878.143 144.281C876.003 144.281 874.456 142.359 874.456 139.281C874.456 136.234 876.003 134.297 878.143 134.297ZM878.143 135.859C876.94 135.859 876.128 137.125 876.128 139.281C876.128 141.453 876.94 142.719 878.143 142.719C879.331 142.719 880.143 141.453 880.143 139.281C880.143 137.125 879.331 135.859 878.143 135.859ZM898.253 133.266V138.891H900.425V140.328H898.253V147.391H896.534V133.266H898.253ZM895.441 135.438V136.828H887.112V135.438H890.456V133.469H892.191V135.438H895.441ZM891.331 137.75C893.362 137.75 894.878 139.125 894.878 141.078C894.878 143.031 893.362 144.391 891.331 144.391C889.269 144.391 887.753 143.031 887.769 141.078C887.753 139.125 889.269 137.75 891.331 137.75ZM891.331 139.172C890.222 139.172 889.425 139.922 889.425 141.078C889.425 142.234 890.222 142.969 891.331 142.953C892.409 142.969 893.206 142.234 893.222 141.078C893.206 139.922 892.409 139.172 891.331 139.172Z" fill="#0258F5"/>
<rect x="813" y="184" width="120" height="27" rx="8" fill="#030B39"/>
<path d="M832.512 202V192.102H834.016V196.395H838.938V192.102H840.441V202H838.938V197.68H834.016V202H832.512ZM842.752 202H841.153L844.708 192.102H846.444L850.012 202H848.413L847.51 199.389H843.655L842.752 202ZM844.092 198.131H847.073L845.61 193.906H845.542L844.092 198.131ZM856.944 195.328C856.698 194.057 855.646 193.346 854.388 193.346C852.679 193.346 851.407 194.658 851.407 197.051C851.407 199.457 852.692 200.756 854.388 200.756C855.632 200.756 856.685 200.059 856.944 198.801L858.462 198.814C858.148 200.77 856.548 202.137 854.374 202.137C851.79 202.137 849.917 200.209 849.917 197.051C849.917 193.879 851.804 191.965 854.374 191.965C856.466 191.965 858.12 193.195 858.462 195.328H856.944ZM866.228 195.328C865.982 194.057 864.929 193.346 863.672 193.346C861.963 193.346 860.691 194.658 860.691 197.051C860.691 199.457 861.976 200.756 863.672 200.756C864.916 200.756 865.968 200.059 866.228 198.801L867.746 198.814C867.431 200.77 865.832 202.137 863.658 202.137C861.074 202.137 859.201 200.209 859.201 197.051C859.201 193.879 861.088 191.965 863.658 191.965C865.75 191.965 867.404 193.195 867.746 195.328H866.228ZM868.813 202V192.102H872.34C874.637 192.102 875.772 193.482 875.772 195.314C875.772 197.133 874.637 198.527 872.34 198.527H870.317V202H868.813ZM870.317 197.242H872.19C873.653 197.242 874.254 196.422 874.254 195.314C874.254 194.193 873.653 193.387 872.19 193.387H870.317V197.242ZM888.638 190.912V195.793H890.538V196.873H888.638V203.148H887.339V190.912H888.638ZM885.439 192.197C885.425 195.738 883.867 198.896 879.833 200.893L879.109 199.881C882.178 198.35 883.846 196.135 884.113 193.277H879.724V192.197H885.439ZM896.158 198.609C898.81 198.609 900.478 199.443 900.492 200.879C900.478 202.301 898.81 203.148 896.158 203.135C893.533 203.148 891.851 202.301 891.851 200.879C891.851 199.443 893.533 198.609 896.158 198.609ZM896.158 199.594C894.299 199.594 893.137 200.072 893.15 200.879C893.137 201.672 894.299 202.137 896.158 202.137C898.031 202.137 899.193 201.672 899.207 200.879C899.193 200.072 898.031 199.594 896.158 199.594ZM900.396 191.514V192.539C900.396 193.523 900.396 194.535 900.055 195.793L898.783 195.656C899.111 194.405 899.111 193.503 899.111 192.553H891.947V191.514H900.396ZM901.791 196.545V197.598H890.648V196.545H895.119V194.248H896.391V196.545H901.791ZM906.454 193.168C906.454 194.727 907.534 196.148 909.393 196.736L908.778 197.748C907.383 197.304 906.365 196.381 905.825 195.219C905.291 196.559 904.218 197.618 902.749 198.131L902.079 197.092C903.993 196.463 905.141 194.877 905.155 193.182V192.84H902.461V191.787H909.092V192.84H906.454V193.168ZM911.799 190.912V193.947H913.577V195.014H911.799V198.268H910.5V190.912H911.799ZM907.848 198.568C910.377 198.568 911.909 199.402 911.909 200.838C911.909 202.287 910.377 203.148 907.848 203.135C905.291 203.148 903.733 202.287 903.733 200.838C903.733 199.402 905.291 198.568 907.848 198.568ZM907.848 199.594C906.071 199.594 905.018 200.045 905.032 200.838C905.018 201.658 906.071 202.109 907.848 202.109C909.612 202.109 910.637 201.658 910.637 200.838C910.637 200.045 909.612 199.594 907.848 199.594Z" fill="white"/>
<path d="M942 197.5H949.5" stroke="#030B39" stroke-width="1.5" stroke-linecap="round" stroke-linejoin="round" stroke-dasharray="1 3"/>
<path d="M956.241 196.999C956.6 197.236 956.6 197.764 956.241 198.001L952.68 200.35C952.282 200.613 951.75 200.327 951.75 199.849V195.151C951.75 194.673 952.282 194.387 952.68 194.65L956.241 196.999Z" fill="#030B39"/>
<rect x="965" y="50" width="120" height="120" rx="60" fill="white"/>
<path opacity="0.9" d="M1006 96.251V88.8229C1006 87.805 1006.58 86.8744 1007.49 86.4191L1013.76 83.2837C1014.51 82.9054 1015.4 82.9054 1016.16 83.2837L1022.43 86.4191C1023.34 86.8744 1023.92 87.805 1023.92 88.8229V96.251C1023.92 97.2689 1023.34 98.1995 1022.43 98.6547L1016.16 101.79C1015.4 102.168 1014.51 102.168 1013.76 101.79L1007.49 98.6547C1006.58 98.1995 1006 97.2689 1006 96.251ZM1008.78 89.0009C1008.56 89.4434 1008.74 89.9815 1009.18 90.2028L1014.06 92.6427V97.9119C1014.06 98.4067 1014.46 98.8078 1014.96 98.8078C1015.45 98.8078 1015.85 98.4067 1015.85 97.9119V92.6427L1020.73 90.2028C1021.18 89.9815 1021.36 89.4434 1021.13 89.0009C1020.91 88.5584 1020.38 88.379 1019.93 88.6003L1014.96 91.0875L1009.98 88.6003C1009.54 88.379 1009 88.5584 1008.78 89.0009ZM1024.91 86.2658C1025.42 87.0026 1025.71 87.8906 1025.71 88.8226V96.2506C1025.71 97.9472 1024.75 99.4981 1023.23 100.257L1016.96 103.392C1015.7 104.023 1014.22 104.023 1012.96 103.392L1007.79 100.811V111.797C1007.79 113.897 1009.4 115.621 1011.45 115.811C1011.87 118.362 1014.08 120.307 1016.75 120.307C1019.41 120.307 1021.62 118.37 1022.05 115.828H1025.78C1026.21 118.37 1028.42 120.307 1031.08 120.307C1033.75 120.307 1035.96 118.37 1036.38 115.828H1039.59C1041.82 115.828 1043.62 114.023 1043.62 111.797V102.099C1043.62 101.502 1043.49 100.913 1043.24 100.374L1040.19 93.9463C1039.53 92.5384 1038.11 91.6408 1036.55 91.6408H1033.77V90.297C1033.77 88.0706 1031.97 86.2658 1029.74 86.2658H1024.91ZM1038.7 108.662H1040.94V111.349H1038.7C1037.96 111.349 1037.35 110.748 1037.35 110.005C1037.35 109.263 1037.96 108.662 1038.7 108.662ZM1037.76 95.0968L1040.37 100.599H1033.77V94.3283H1036.55C1037.07 94.3283 1037.54 94.6275 1037.76 95.0968ZM1019.44 114.932C1019.44 116.417 1018.23 117.62 1016.75 117.62C1015.27 117.62 1014.06 116.417 1014.06 114.932C1014.06 113.448 1015.27 112.245 1016.75 112.245C1018.23 112.245 1019.44 113.448 1019.44 114.932ZM1031.08 112.245C1032.57 112.245 1033.77 113.448 1033.77 114.932C1033.77 116.417 1032.57 117.62 1031.08 117.62C1029.6 117.62 1028.4 116.417 1028.4 114.932C1028.4 113.448 1029.6 112.245 1031.08 112.245Z" fill="#3B7EFF"/>
<path opacity="0.8" d="M997.438 146V144.531L1001.44 140.672C1002.58 139.531 1003.17 138.859 1003.17 137.906C1003.17 136.859 1002.34 136.188 1001.23 136.188C1000.06 136.188 999.312 136.922 999.328 138.062H997.391C997.375 135.922 998.984 134.531 1001.25 134.531C1003.56 134.531 1005.12 135.906 1005.12 137.812C1005.12 139.094 1004.5 140.125 1002.28 142.219L1000.27 144.219V144.297H1005.3V146H997.438ZM1008.98 139.906C1007.52 139.906 1006.33 138.719 1006.33 137.266C1006.33 135.797 1007.52 134.609 1008.98 134.609C1010.45 134.609 1011.64 135.797 1011.64 137.266C1011.64 138.719 1010.45 139.906 1008.98 139.906ZM1008.98 138.516C1009.67 138.516 1010.23 137.953 1010.23 137.266C1010.23 136.562 1009.67 136.016 1008.98 136.016C1008.3 136.016 1007.73 136.562 1007.73 137.266C1007.73 137.953 1008.3 138.516 1008.98 138.516ZM1020.27 138.5C1020.03 137.141 1018.94 136.359 1017.56 136.359C1015.7 136.359 1014.41 137.781 1014.41 140.344C1014.41 142.938 1015.72 144.328 1017.56 144.328C1018.91 144.328 1020 143.578 1020.27 142.25H1022.31C1022 144.422 1020.22 146.156 1017.53 146.156C1014.55 146.156 1012.36 143.984 1012.36 140.344C1012.36 136.688 1014.58 134.531 1017.53 134.531C1020.03 134.531 1021.97 135.984 1022.31 138.5H1020.27ZM1037.75 133.266V147.406H1036V133.266H1037.75ZM1030.14 134.297C1032.27 134.297 1033.82 136.234 1033.83 139.281C1033.82 142.359 1032.27 144.281 1030.14 144.281C1028 144.281 1026.46 142.359 1026.46 139.281C1026.46 136.234 1028 134.297 1030.14 134.297ZM1030.14 135.859C1028.94 135.859 1028.13 137.125 1028.13 139.281C1028.13 141.453 1028.94 142.719 1030.14 142.719C1031.33 142.719 1032.14 141.453 1032.14 139.281C1032.14 137.125 1031.33 135.859 1030.14 135.859ZM1050.25 133.266V138.891H1052.42V140.328H1050.25V147.391H1048.53V133.266H1050.25ZM1047.44 135.438V136.828H1039.11V135.438H1042.46V133.469H1044.19V135.438H1047.44ZM1043.33 137.75C1045.36 137.75 1046.88 139.125 1046.88 141.078C1046.88 143.031 1045.36 144.391 1043.33 144.391C1041.27 144.391 1039.75 143.031 1039.77 141.078C1039.75 139.125 1041.27 137.75 1043.33 137.75ZM1043.33 139.172C1042.22 139.172 1041.42 139.922 1041.42 141.078C1041.42 142.234 1042.22 142.969 1043.33 142.953C1044.41 142.969 1045.21 142.234 1045.22 141.078C1045.21 139.922 1044.41 139.172 1043.33 139.172Z" fill="#0258F5"/>
<rect x="965" y="184" width="120" height="27" rx="8" fill="#030B39"/>
<path d="M995.24 191.992V193.059H990.783V195.424H994.994V196.463H990.783V199.211C992.827 199.204 994.338 199.115 996.115 198.828L996.238 199.881C994.352 200.195 992.711 200.264 990.455 200.264H989.471V191.992H995.24ZM998.494 190.912V195.738H1000.46V196.832H998.494V203.162H997.195V190.912H998.494ZM1010.38 192.047V193.195C1010.36 194.686 1010.38 196.381 1009.86 198.924L1008.58 198.787C1008.81 197.741 1008.94 196.818 1009.01 195.984L1001.64 196.422L1001.45 195.301L1009.08 195C1009.1 194.344 1009.1 193.749 1009.1 193.195V193.113H1001.82V192.047H1010.38ZM1011.66 200.496V201.576H1000.49V200.496H1004.74V197.393H1006.03V200.496H1011.66ZM1017.2 192.293V195.479H1018.84V191.145H1020.08V202.561H1018.84V196.545H1017.2V199.936H1012.44V192.293H1017.2ZM1013.67 193.318V198.896H1015.98V193.318H1013.67ZM1022.57 190.912V203.162H1021.33V190.912H1022.57ZM1029.86 191.992V193.059H1025.4V195.424H1029.61V196.463H1025.4V199.211C1027.45 199.204 1028.96 199.115 1030.73 198.828L1030.86 199.881C1028.97 200.195 1027.33 200.264 1025.07 200.264H1024.09V191.992H1029.86ZM1033.11 190.912V195.738H1035.08V196.832H1033.11V203.162H1031.81V190.912H1033.11ZM1049.16 197.051V198.104H1044.31V200.482H1043V198.104H1037.95V197.051H1049.16ZM1047.92 201.836V202.902H1039.36V199.307H1040.66V201.836H1047.92ZM1043.55 191.199C1046.18 191.199 1047.89 192.156 1047.89 193.688C1047.89 195.219 1046.18 196.162 1043.55 196.162C1040.92 196.162 1039.18 195.219 1039.18 193.688C1039.18 192.156 1040.92 191.199 1043.55 191.199ZM1043.55 192.238C1041.75 192.238 1040.57 192.785 1040.58 193.688C1040.57 194.576 1041.75 195.109 1043.55 195.109C1045.35 195.109 1046.53 194.576 1046.53 193.688C1046.53 192.785 1045.35 192.238 1043.55 192.238ZM1059.13 190.926V194.535H1060.91V195.629H1059.13V199.922H1057.83V190.926H1059.13ZM1059.65 201.85V202.902H1051.37V199.033H1052.67V201.85H1059.65ZM1051.26 191.801V193.756H1054.47V191.801H1055.76V197.898H1049.99V191.801H1051.26ZM1051.26 196.859H1054.47V194.781H1051.26V196.859Z" fill="white"/>
<path d="M1094 197.5H1101.5" stroke="#030B39" stroke-width="1.5" stroke-linecap="round" stroke-linejoin="round" stroke-dasharray="1 3"/>
<path d="M1108.24 196.999C1108.6 197.236 1108.6 197.764 1108.24 198.001L1104.68 200.35C1104.28 200.613 1103.75 200.327 1103.75 199.849V195.151C1103.75 194.673 1104.28 194.387 1104.68 194.65L1108.24 196.999Z" fill="#030B39"/>
<rect x="1117" y="50" width="120" height="120" rx="60" fill="white"/>
<path opacity="0.9" d="M1174.87 106.877L1174.86 119.998H1169.62L1169.63 106.877H1174.87ZM1186.7 104.252H1180.57C1179.84 104.252 1179.26 104.839 1179.26 105.564V111.693C1179.26 112.418 1179.84 113.005 1180.57 113.005H1186.7C1187.42 113.005 1188.01 112.418 1188.01 111.693V105.564C1188.01 104.839 1187.42 104.252 1186.7 104.252ZM1185.38 106.877V110.38H1181.88V106.877H1185.38ZM1170.79 93.7535H1162.63L1162.63 95.7918C1162.63 97.8584 1164.16 99.5663 1166.16 99.8365L1166.43 99.8643L1166.71 99.8738C1168.87 99.8738 1170.64 98.1953 1170.78 96.0713L1170.79 95.7918L1170.79 93.7535ZM1181.58 93.7535H1173.42L1173.42 95.7918C1173.42 97.8584 1174.95 99.5663 1176.94 99.8365L1177.22 99.8643L1177.5 99.8738C1179.66 99.8738 1181.43 98.1953 1181.57 96.0713L1181.58 95.7918L1181.58 93.7535ZM1192.37 93.7535H1184.21L1184.21 95.7918C1184.21 97.8584 1185.74 99.5663 1187.74 99.8365L1188.01 99.8643L1188.29 99.8738C1190.45 99.8738 1192.22 98.1953 1192.36 96.0713L1192.37 95.7918L1192.37 93.7535ZM1172.36 87.625H1167.57L1164.32 91.1285H1171.28L1172.36 87.625ZM1179.89 87.625H1175.1L1174.03 91.1285H1180.97L1179.89 87.625ZM1187.43 87.625H1182.64L1183.72 91.1285H1190.68L1187.43 87.625ZM1160.35 91.5484L1166.04 85.4198C1166.25 85.1968 1166.52 85.0539 1166.82 85.0125L1167 85H1188C1188.3 85 1188.6 85.1056 1188.83 85.2958L1188.96 85.4198L1194.69 91.5944L1194.74 91.6625C1194.92 91.8999 1195 92.1691 1195 92.4336L1195 95.7918C1195 97.5316 1194.33 99.1167 1193.25 100.309L1193.25 118.688C1193.25 119.352 1192.75 119.901 1192.11 119.988L1191.93 120L1177.49 119.998L1177.49 105.564C1177.49 104.839 1176.91 104.252 1176.18 104.252H1168.31C1167.59 104.252 1167 104.839 1167 105.564L1167 119.998L1163.07 120C1162.4 120 1161.85 119.506 1161.76 118.866L1161.75 118.688L1161.75 100.309C1160.74 99.196 1160.09 97.7408 1160.01 96.1369L1160 95.7918L1160 92.5092C1159.99 92.2689 1160.04 92.0217 1160.17 91.7955L1160.26 91.6623L1160.35 91.5484Z" fill="#3B7EFF"/>
<path opacity="0.8" d="M1153.45 146.156C1151.19 146.156 1149.53 144.812 1149.47 142.938H1151.45C1151.52 143.859 1152.38 144.516 1153.45 144.516C1154.72 144.516 1155.62 143.594 1155.62 142.344C1155.62 141.047 1154.69 140.125 1153.39 140.125C1152.52 140.109 1151.88 140.422 1151.52 141.094H1149.62L1150.31 134.688H1157V136.391H1151.98L1151.64 139.391H1151.75C1152.19 138.891 1153.02 138.531 1153.94 138.531C1156.05 138.531 1157.59 140.109 1157.59 142.281C1157.59 144.547 1155.89 146.156 1153.45 146.156ZM1161.22 139.906C1159.75 139.906 1158.56 138.719 1158.56 137.266C1158.56 135.797 1159.75 134.609 1161.22 134.609C1162.69 134.609 1163.88 135.797 1163.88 137.266C1163.88 138.719 1162.69 139.906 1161.22 139.906ZM1161.22 138.516C1161.91 138.516 1162.47 137.953 1162.47 137.266C1162.47 136.562 1161.91 136.016 1161.22 136.016C1160.53 136.016 1159.97 136.562 1159.97 137.266C1159.97 137.953 1160.53 138.516 1161.22 138.516ZM1172.5 138.5C1172.27 137.141 1171.17 136.359 1169.8 136.359C1167.94 136.359 1166.64 137.781 1166.64 140.344C1166.64 142.938 1167.95 144.328 1169.8 144.328C1171.14 144.328 1172.24 143.578 1172.5 142.25H1174.55C1174.24 144.422 1172.45 146.156 1169.77 146.156C1166.78 146.156 1164.6 143.984 1164.6 140.344C1164.6 136.688 1166.81 134.531 1169.77 134.531C1172.27 134.531 1174.2 135.984 1174.55 138.5H1172.5ZM1189.99 133.266V147.406H1188.24V133.266H1189.99ZM1182.38 134.297C1184.5 134.297 1186.05 136.234 1186.07 139.281C1186.05 142.359 1184.5 144.281 1182.38 144.281C1180.24 144.281 1178.69 142.359 1178.69 139.281C1178.69 136.234 1180.24 134.297 1182.38 134.297ZM1182.38 135.859C1181.17 135.859 1180.36 137.125 1180.36 139.281C1180.36 141.453 1181.17 142.719 1182.38 142.719C1183.57 142.719 1184.38 141.453 1184.38 139.281C1184.38 137.125 1183.57 135.859 1182.38 135.859ZM1202.49 133.266V138.891H1204.66V140.328H1202.49V147.391H1200.77V133.266H1202.49ZM1199.67 135.438V136.828H1191.35V135.438H1194.69V133.469H1196.42V135.438H1199.67ZM1195.57 137.75C1197.6 137.75 1199.11 139.125 1199.11 141.078C1199.11 143.031 1197.6 144.391 1195.57 144.391C1193.5 144.391 1191.99 143.031 1192 141.078C1191.99 139.125 1193.5 137.75 1195.57 137.75ZM1195.57 139.172C1194.46 139.172 1193.66 139.922 1193.66 141.078C1193.66 142.234 1194.46 142.969 1195.57 142.953C1196.64 142.969 1197.44 142.234 1197.46 141.078C1197.44 139.922 1196.64 139.172 1195.57 139.172Z" fill="#0258F5"/>
<rect x="1117" y="184" width="120" height="27" rx="8" fill="#030B39"/>
<path d="M1150.14 192.129V200.086H1144.42V192.129H1150.14ZM1145.69 193.154V199.033H1148.86V193.154H1145.69ZM1153.49 190.912V195.711H1155.46V196.805H1153.49V203.162H1152.2V190.912H1153.49ZM1165.43 197.434V198.473H1156.9V191.924H1165.31V192.977H1158.21V194.631H1165.05V195.656H1158.21V197.434H1165.43ZM1166.7 200.551V201.617H1155.49V200.551H1166.7ZM1170.35 202.137C1168.37 202.137 1167.14 200.961 1167.14 199.375C1167.14 198.186 1167.92 197.454 1169.05 196.682C1168.42 195.93 1167.96 195.232 1167.96 194.344C1167.96 192.977 1168.96 191.992 1170.46 191.992C1171.99 191.992 1172.92 192.99 1172.92 194.152C1172.92 195.096 1172.43 195.779 1171.61 196.381L1170.93 196.873L1172.91 199.238C1173.16 198.753 1173.32 198.165 1173.32 197.502H1174.63C1174.63 198.869 1174.24 199.758 1173.81 200.305L1175.22 202H1173.58L1172.91 201.207C1172.24 201.843 1171.25 202.137 1170.35 202.137ZM1168.6 199.334C1168.6 200.182 1169.3 200.906 1170.37 200.906C1170.97 200.906 1171.58 200.674 1172.09 200.25L1169.87 197.652L1169.63 197.844C1168.85 198.418 1168.6 199.02 1168.6 199.334ZM1169.33 194.357C1169.33 194.856 1169.68 195.362 1170.13 195.916L1170.74 195.492C1171.27 195.137 1171.6 194.781 1171.6 194.193C1171.6 193.729 1171.16 193.209 1170.49 193.209C1169.81 193.209 1169.33 193.783 1169.33 194.357ZM1186.39 200.537V201.604H1175.18V200.537H1180.09V197.625H1181.37V200.537H1186.39ZM1181.4 192.621C1181.4 194.562 1183.53 196.381 1185.9 196.777L1185.34 197.844C1183.36 197.447 1181.53 196.224 1180.72 194.535C1179.91 196.217 1178.11 197.461 1176.14 197.844L1175.56 196.777C1177.91 196.381 1180.03 194.562 1180.03 192.621V191.691H1181.4V192.621ZM1196.86 190.912V203.189H1195.56V190.912H1196.86ZM1188.7 191.938V195.082H1192V191.938H1193.28V200.25H1187.4V191.938H1188.7ZM1188.7 199.184H1192V196.107H1188.7V199.184ZM1202.52 194.521C1202.52 196.463 1203.8 198.623 1205.66 199.498L1204.92 200.51C1203.54 199.847 1202.46 198.466 1201.91 196.859C1201.34 198.616 1200.19 200.127 1198.79 200.824L1198.03 199.799C1199.89 198.91 1201.24 196.6 1201.24 194.521V193.223H1198.48V192.143H1205.19V193.223H1202.52V194.521ZM1207.8 190.912V195.766H1209.77V196.859H1207.8V203.162H1206.5V190.912H1207.8Z" fill="white"/>
<mask id="mask0_423_2613" style="mask-type:alpha" maskUnits="userSpaceOnUse" x="24" y="121" width="242" height="139">
<rect x="266" y="260" width="242" height="138.286" rx="20" transform="rotate(180 266 260)" fill="url(#paint0_linear_423_2613)"/>
</mask>
<g mask="url(#mask0_423_2613)">
<g opacity="0.4">
<path d="M49.7985 249.776C49.1477 247.092 50.7958 244.389 53.4794 243.738L77.0579 238.021L60.7136 223.918C58.6229 222.114 58.424 218.986 60.2698 216.932C62.1156 214.878 65.3074 214.676 67.3981 216.48L89.0056 235.124L134.493 224.094L103.031 191.705L74.2974 196.12C71.5444 196.543 68.9837 194.691 68.578 191.985C68.1724 189.278 70.0751 186.741 72.8281 186.318L94.5566 182.979L77.9118 165.842C75.9878 163.861 76.0624 160.726 78.0787 158.839C80.0949 156.952 83.2892 157.028 85.2132 159.009L102.713 177.028L107.579 153.831C108.141 151.152 110.813 149.408 113.549 149.935C116.284 150.461 118.046 153.06 117.484 155.739L111.188 185.753L140.31 215.733L152.452 175.785L133.106 151.983C131.379 149.859 131.755 146.742 133.946 145.021C136.136 143.3 139.31 143.626 141.037 145.75L155.989 164.146L163.293 140.12C164.096 137.477 166.901 135.947 169.557 136.7C172.213 137.454 173.716 140.207 172.913 142.848L165.964 165.71L186.8 158.728C189.441 157.843 192.294 159.227 193.174 161.819C194.053 164.411 192.624 167.23 189.983 168.114L162.426 177.349L149.31 220.502L188.74 210.941L199.681 182.556C200.674 179.98 203.56 178.717 206.127 179.736C208.693 180.755 209.968 183.671 208.975 186.247L200.562 208.074L226.53 201.777C229.214 201.127 231.917 202.775 232.568 205.458C233.218 208.142 231.57 210.845 228.887 211.496L202.94 217.787L220.387 233.309C222.45 235.145 222.651 238.32 220.837 240.402C219.022 242.483 215.879 242.682 213.816 240.847L191.12 220.653L153.863 229.687L180.601 257.215L211.131 252.06C213.877 251.597 216.399 253.42 216.762 256.132C217.125 258.845 215.193 261.42 212.447 261.883L188.984 265.846L207.306 284.708C209.229 286.688 209.154 289.823 207.139 291.71C205.122 293.597 201.928 293.52 200.004 291.54L181.685 272.681L176.53 295.515C175.927 298.186 173.214 299.957 170.471 299.471C167.728 298.986 165.993 296.427 166.595 293.757L173.303 264.051L144.947 234.858L133.1 273.835L152.655 297.154C154.413 299.252 154.042 302.32 151.827 304.008C149.611 305.696 146.388 305.365 144.629 303.268L129.601 285.347L121.954 310.508C121.15 313.15 118.346 314.681 115.689 313.927C113.033 313.174 111.53 310.421 112.333 307.778L119.98 282.621L97.2905 289.851C94.637 290.696 91.7409 289.292 90.8214 286.715C89.902 284.137 91.3075 281.362 93.9609 280.516L123.478 271.11L134.653 234.345L92.574 244.549L81.1052 273.005C80.0729 275.566 77.1429 276.848 74.5614 275.868C71.9801 274.887 70.7245 272.017 71.7565 269.456L80.6263 247.446L55.8359 253.457C53.1524 254.108 50.4493 252.459 49.7985 249.776Z" fill="#A7C5FF"/>
</g>
</g>
<mask id="mask1_423_2613" style="mask-type:alpha" maskUnits="userSpaceOnUse" x="1251" y="2" width="242" height="140">
<rect x="1493" y="141.277" width="242" height="138.286" rx="20" transform="rotate(180 1493 141.277)" fill="url(#paint1_linear_423_2613)"/>
</mask>
<g mask="url(#mask1_423_2613)">
<g opacity="0.4">
<path d="M1308.78 37.0557C1308.26 34.9089 1309.57 32.7464 1311.72 32.2258L1327.01 28.5178L1316.5 19.4445C1314.82 18.0013 1314.67 15.499 1316.14 13.856C1317.62 12.2129 1320.17 12.051 1321.85 13.4942L1336.57 26.2004L1366.84 18.8603L1345.93 -2.66389L1326.34 0.346852C1324.13 0.684981 1322.09 -0.795806 1321.76 -2.96109C1321.44 -5.12644 1322.96 -7.15597 1325.16 -7.49458L1339.15 -9.64455L1328.36 -20.7586C1326.82 -22.3433 1326.88 -24.8516 1328.49 -26.361C1330.11 -27.8704 1332.66 -27.8092 1334.2 -26.2246L1345.59 -14.5012L1348.74 -29.536C1349.19 -31.6792 1351.33 -33.075 1353.52 -32.6536C1355.71 -32.232 1357.11 -30.1527 1356.66 -28.0097L1352.37 -7.52051L1371.67 12.3508L1379.72 -14.1307L1366.51 -30.3778C1365.13 -32.077 1365.43 -34.5708 1367.19 -35.9477C1368.94 -37.3246 1371.48 -37.0631 1372.86 -35.3639L1382.55 -23.4414L1387.3 -39.0683C1387.94 -41.1819 1390.19 -42.4069 1392.31 -41.8039C1394.44 -41.201 1395.64 -38.9985 1395 -36.885L1390.49 -22.0642L1403.9 -26.5588C1406.02 -27.2668 1408.3 -26.1599 1409 -24.0864C1409.71 -22.0128 1408.56 -19.7581 1406.45 -19.0502L1387.66 -12.7532L1378.94 15.9259L1404.99 9.60938L1412.46 -9.76563C1413.26 -11.8266 1415.56 -12.8367 1417.62 -12.0216C1419.67 -11.2061 1420.69 -8.87367 1419.9 -6.81235L1414.45 7.31616L1431.4 3.20518L1431.61 3.16137C1433.69 2.76767 1435.73 4.07034 1436.23 6.14993C1436.74 8.22963 1435.52 10.3243 1433.49 10.9266L1433.29 10.9799L1416.36 15.0847L1427.65 25.13C1429.3 26.5984 1429.46 29.1381 1428.01 30.8034C1426.56 32.4687 1424.05 32.628 1422.39 31.1596L1406.9 17.3779L1382.34 23.3345L1399.97 41.49L1420.83 37.9692C1423.02 37.5985 1425.04 39.0572 1425.33 41.2272C1425.62 43.3971 1424.07 45.4572 1421.88 45.8283L1406.68 48.3941L1418.64 60.7091C1420.18 62.2938 1420.12 64.8022 1418.51 66.3115C1416.9 67.8209 1414.34 67.7598 1412.8 66.1753L1400.84 53.8651L1397.5 68.6491C1397.02 70.7852 1394.85 72.2022 1392.66 71.8139C1390.46 71.4254 1389.08 69.3782 1389.56 67.2419L1394.14 46.961L1375.38 27.6497L1367.55 53.4248L1380.91 69.3635C1382.32 71.0416 1382.02 73.4972 1380.25 74.8477C1378.48 76.1981 1375.9 75.9322 1374.49 74.2543L1364.75 62.6336L1359.75 79.0695C1359.11 81.183 1356.87 82.4078 1354.74 81.805C1352.62 81.202 1351.41 78.9997 1352.06 76.8861L1357.04 60.4719L1342.37 65.1484C1340.25 65.8249 1337.93 64.7015 1337.19 62.6393C1336.46 60.5772 1337.58 58.3566 1339.71 57.6801L1359.84 51.2629L1367.22 27.0011L1339.29 33.773L1331.47 53.1858C1330.64 55.2347 1328.3 56.2601 1326.23 55.476C1324.17 54.6918 1323.16 52.3948 1323.99 50.3459L1329.73 36.0904L1313.61 40.0005C1311.46 40.5211 1309.3 39.2027 1308.78 37.0557Z" fill="#A7C5FF"/>
</g>
</g>
<defs>
<linearGradient id="paint0_linear_423_2613" x1="267.194" y1="262.881" x2="513.359" y2="273.449" gradientUnits="userSpaceOnUse">
<stop stop-color="#E5EEFF"/>
<stop offset="1" stop-color="#B8D1FF"/>
</linearGradient>
<linearGradient id="paint1_linear_423_2613" x1="1494.19" y1="144.158" x2="1740.36" y2="154.727" gradientUnits="userSpaceOnUse">
<stop stop-color="#E5EEFF"/>
<stop offset="1" stop-color="#B8D1FF"/>
</linearGradient>
</defs>
</svg>
