<svg xmlns="http://www.w3.org/2000/svg" xml:space="preserve" width="987.95874" height="303.20547" viewBox="0 0 987.95872 303.20547"><defs><clipPath id="a" clipPathUnits="userSpaceOnUse"><path d="M0 595.276h841.89V0H0Z"/></clipPath></defs><g clip-path="url(#a)" style="stroke-width:.618397" transform="matrix(2.15611 0 0 -2.15611 -410.297 1053.972)"><path d="M219.612 434.067h-29.317v-66.133h29.317c20.707 0 33.069 12.361 33.069 33.068 0 20.704-12.362 33.065-33.069 33.065m0-50.277h-13.461v34.421h13.461c11.905 0 17.213-5.306 17.213-17.209 0-11.904-5.308-17.212-17.213-17.212m73.083 51.621c-18.971 0-34.409-15.435-34.409-34.409s15.438-34.409 34.409-34.409 34.406 15.435 34.406 34.409-15.435 34.409-34.406 34.409m0-52.321c-9.878 0-17.912 8.037-17.912 17.912s8.034 17.911 17.912 17.911c9.875 0 17.909-8.037 17.909-17.911s-8.034-17.912-17.909-17.912m187.567 50.977c-9.335 0-16.89-2.841-22.455-8.449-7.738-7.793-9.176-18.535-9.428-24.876l-.041-.024v-1.634c-.014-.819-.009-1.526-.006-2.09l.006-.49v-28.57h15.852v30.803c.057 3.947.597 11.409 4.867 15.71 2.517 2.532 6.182 3.764 11.205 3.764a7.93 7.93 0 0 1 7.93 7.929 7.93 7.93 0 0 1-7.93 7.927m39.076 0c-18.233 0-33.068-14.833-33.068-33.065s14.835-33.068 33.068-33.068a32.9 32.9 0 0 1 15.32 3.776l-7.08 14.188a17.1 17.1 0 0 0-8.24-2.108c-9.494 0-17.215 7.721-17.215 17.212s7.721 17.209 17.215 17.209c9.437 0 17.117-7.634 17.202-17.05v-33.227h15.856v32.826c0 .083.005.159.005.242 0 18.232-14.831 33.065-33.063 33.065m103.455 0c-6.897 0-13.163-2.736-17.785-7.171-4.622 4.435-10.887 7.171-17.785 7.171-13.986 0-25.393-11.225-25.7-25.14h-.007v-.257c0-.106-.008-.212-.008-.317v-7.926h.008v-32.493h15.854v40.577c.089 5.364 4.47 9.7 9.853 9.7 5.435 0 9.858-4.42 9.858-9.858v-40.419h15.855v40.419c0 5.438 4.42 9.858 9.857 9.858s9.858-4.42 9.858-9.858v-40.419h15.857v40.419c0 14.179-11.534 25.714-25.715 25.714" style="fill:#808285;fill-opacity:1;fill-rule:nonzero;stroke:none;stroke-width:.618397"/><path d="M423.777 488.83c-9.001 0-16.333-7.311-16.333-16.335v-22.688a52.9 52.9 0 0 1-20.173 3.989c-29.154 0-52.798-23.628-52.798-52.778 0-29.172 23.644-52.814 52.798-52.814 29.158 0 52.812 23.642 52.812 52.814v71.477c0 9.024-7.282 16.335-16.306 16.335M387.271 367.6c-18.456 0-33.414 14.942-33.414 33.418 0 18.446 14.958 33.404 33.414 33.404s33.407-14.958 33.407-33.404c0-18.476-14.95-33.418-33.407-33.418m-13.95 41.719c-4.749 0-8.598-3.852-8.598-8.604a8.6 8.6 0 0 1 8.598-8.6c4.752 0 8.604 3.851 8.604 8.6a8.604 8.604 0 0 1-8.604 8.604m27.874 0c-4.749 0-8.6-3.852-8.6-8.604a8.6 8.6 0 0 1 17.201 0 8.603 8.603 0 0 1-8.601 8.604" style="fill:#f04e37;fill-opacity:1;fill-rule:nonzero;stroke:none;stroke-width:.618397"/></g></svg>