<svg width="24" height="24" viewBox="0 0 24 24" fill="none" xmlns="http://www.w3.org/2000/svg">
<path d="M2.25 19.4C2.25 19.8238 2.40762 20.2303 2.68828 20.5302C2.96893 20.8302 3.3497 20.9992 3.747 21H20.253C20.6503 20.9992 21.0311 20.8302 21.3117 20.5302C21.5924 20.2303 21.75 19.8238 21.75 19.4V16.1456C21.1023 15.9583 20.5305 15.5487 20.1228 14.9802C19.7151 14.4117 19.4942 13.7158 19.4942 13C19.4942 12.2842 19.7151 11.5883 20.1228 11.0198C20.5305 10.4513 21.1023 10.0417 21.75 9.8544V6.6C21.75 6.17621 21.5924 5.76973 21.3117 5.46976C21.0311 5.16979 20.6503 5.00085 20.253 5H3.747C3.3497 5.00085 2.96893 5.16979 2.68828 5.46976C2.40762 5.76973 2.25 6.17621 2.25 6.6V9.848C2.90283 10.0312 3.48042 10.4397 3.89259 11.01C4.30475 11.5802 4.52829 12.28 4.52829 13C4.52829 13.72 4.30475 14.4198 3.89259 14.99C3.48042 15.5603 2.90283 15.9688 2.25 16.152V19.4Z" stroke="black" stroke-width="1.5" stroke-linecap="round" stroke-linejoin="round"/>
<path d="M9.17188 9.30729V16.6919" stroke="black" stroke-width="1.5" stroke-linecap="round"/>
</svg>
