<svg width="48" height="48" viewBox="0 0 48 48" fill="none" xmlns="http://www.w3.org/2000/svg">
<rect width="48" height="48" rx="24" fill="#F5F5F5"/>
<path d="M36.4564 17.8103C36.158 16.7042 35.276 15.8332 34.1577 15.5371C32.1309 15 24 15 24 15C24 15 15.8691 15 13.8423 15.5371C12.724 15.8332 11.842 16.7042 11.5436 17.8103C11 19.8165 11 24 11 24C11 24 11 28.1835 11.5436 30.1897C11.842 31.2958 12.724 32.1668 13.8423 32.4629C15.8706 33 24 33 24 33C24 33 32.1309 33 34.1577 32.4629C35.276 32.1668 36.158 31.2958 36.4564 30.1897C37 28.185 37 24 37 24C37 24 37 19.8165 36.4564 17.8103Z" fill="#FF0006"/>
<path d="M22.4307 27.2902C22.0974 27.4806 21.6826 27.24 21.6826 26.856V21.1507C21.6826 20.7667 22.0974 20.5261 22.4307 20.7165L27.4229 23.5692C27.7588 23.7612 27.7588 24.2455 27.4229 24.4375L22.4307 27.2902Z" fill="white"/>
</svg>
