<svg width="70" height="70" viewBox="0 0 70 70" fill="none" xmlns="http://www.w3.org/2000/svg">
<rect width="70" height="70" rx="35" fill="white"/>
<rect x="23" y="23" width="24" height="24" rx="5" fill="url(#paint0_linear_423_698)"/>
<path d="M34.8871 41.7663C31.2531 41.7663 28.2969 38.8101 28.2969 35.1761C28.2969 31.5421 31.2531 28.5859 34.8871 28.5859C38.5211 28.5859 41.4773 31.5421 41.4773 35.1761C41.4773 38.8101 38.5211 41.7663 34.8871 41.7663ZM34.8871 30.7799C32.463 30.7799 30.4908 32.752 30.4908 35.1761C30.4908 37.6002 32.463 39.5724 34.8871 39.5724C37.3112 39.5724 39.2833 37.6002 39.2833 35.1761C39.2833 32.752 37.3112 30.7799 34.8871 30.7799Z" fill="white"/>
<path d="M43.1646 28.4312C43.2469 27.5986 42.6387 26.8568 41.806 26.7744C40.9733 26.692 40.2315 27.3002 40.1492 28.1329C40.0668 28.9656 40.675 29.7074 41.5077 29.7898C42.3404 29.8722 43.0822 29.2639 43.1646 28.4312Z" fill="white"/>
<defs>
<linearGradient id="paint0_linear_423_698" x1="41.24" y1="24.92" x2="28.76" y2="45.08" gradientUnits="userSpaceOnUse">
<stop stop-color="#E902D4"/>
<stop offset="1" stop-color="#F6951B"/>
</linearGradient>
</defs>
</svg>
